<svg enable-background="new 0 0 455.5 443.1" viewBox="0 0 455.5 443.1" xmlns="http://www.w3.org/2000/svg" xmlns:xlink="http://www.w3.org/1999/xlink"><linearGradient id="a" gradientUnits="userSpaceOnUse" x1="218.637" x2="218.342" y1="292.009" y2="302.505"><stop offset="0" stop-color="#72401a"/><stop offset="1" stop-color="#9d5b25"/></linearGradient><linearGradient id="b" gradientUnits="userSpaceOnUse" x1="217.78" x2="265.07" y1="198.041" y2="266.858"><stop offset="0" stop-color="#f9a459"/><stop offset="1" stop-color="#f48551"/></linearGradient><path d="m11.5 432.5c24.9-.6 50.1-.4 75-.5h30.5 49 71.5c24 1.4 48 0 72 0 14.8 0 29.7.6 44.5.5h6.5c8.5 0 17-.5 25.5-.5 9.3 0 18.7.1 28 0 3.6 0 30.9.7 31.5-.8.1-40.4-.1-80.8 0-121.2 0-1 0-2 0-3 0-5 0-10 0-15 0-14.5 0-29 0-43.5 0-6.2 0-12.3 0-18.5.1-53.2.6-106.3.5-159.5 0-5.5 0-11 0-16.5 0-13 .6-28.5 0-41-.1-2.2.1-4.5 0-6.7-21.9-1.7-44.7-.3-67-.8 10-.1 63 .2 66.8-.5.5-.1 5.6-5.3 7.2 1.2 1.1 4.1-1 66.4-1 77.5 0 36.3 1.5 72.7 1.5 109 0 3.5-1 7.5-1 11 .1 76 .2 152 1 228-1 3.9-4.3 6.2-8.2 6.8-4.1.6-45.2-.6-57-.5-.1 0-2.4 1-2.5 1-8.5 0-17 0-25.5 0-.1 0-1.4-1-1.5-1-74.7-.1-149.4.5-224 0-3.5 0-7.5-1-11-1-4.4 0-9.1.5-13.5.5-.1 0-1.4-1-1.5-1-.3 0-1.3 1.9-5.5 0-18.3 1.3-37-.7-55.5 1.5-4-2.9-32-.3-33.5-1-.3-.2-3-3.7-2.8-4.5z" fill="#1b1c25"/><path d="m79 288c-21-16-65.2-16.8-68.5 6.2-1.3 9.3 1 63.1 0 79.8-1 .1-1.9.8-3.5.5-.2-26.3.1-52.7 0-79 3.9.2 2.6-3.7 3.5-5.2 12.5-22.7 51.8-16.6 68.5-2.3z" fill="#d3e2e8"/><path d="m11 56c-.3 0-1 .6-1 .8-.9 4.2.7 46.7 0 57.5.4.5.8 1.2 1 1.8-2.2-.7-.4-2.6-4-1.5 0-19.5 0-39 0-58.5 2.4.5 2.7-.7 4-.1z" fill="#d3e2e8"/><path d="m16 207.5c-1.4-.1-4.5-1.5-6 .2.2 25.4.2 25.4.5 50.8-1.7-1.3-.3-2.4-3.5-2 0-16.5 0-33 0-49.5 2.5.7 8.1-2.2 9 .5z" fill="#d3e2e8"/><path d="m11.5 160c-.1.7-1.4 1.4-1.5 1.8-.6 2.4.1 25.5.5 30.8-.8 0-1.8.8-3.5.5 0-10.3 0-20.7 0-31 1.7-.1 3-1.4 4.5-2.1z" fill="#d3e2e8"/><path d="m10.5 192.5c-.4-5.2-1.1-28.3-.5-30.8.1-.3 1.4-1 1.5-1.8 5.4-2.8 10.8-5.7 16.2-8.5.7 0 10.7 6.9 12.5 8 2.2 1.3 13.2 5.5 13.2 7.8-6.2 11-5.1 25.8-20.8 27.2-7.2.7-14.8-2-22.1-1.9z" fill="#82bccc"/><path d="m9 6.5c.6 5.9-1 16.6.5 21.8.7 2.5 11.6 17.5 14 21.2.3.5.7 1 1 1.5 22.4 35.2 38.6 63.3 57.5 100.7 16.1 31.9 34.8 64.3 36 101-.5 89.6-.5 89.6-1 179.3-10.2 0-20.3 0-30.5 0 .6-2.2 8.1 0 10.2-2 .9-.8-.3-1-.2-1 2-4.3 3.6-31.5 4.2-39-3.6-.4-7.4 1.5-8 1.5-16.4 1.2-60.2-2.3-80.2-3-.6-2.7-3.5.7-5.5 0-.1-4.7 0-9.3 0-14 1.6.3 2.5-.4 3.5-.5 11.4-.9 55.1 2.8 71.8 3 26-2.7 32.3-28.2 25.8-50.2-4.4-14.6-17.7-28.9-29-38.8-16.7-14.3-55.9-20.4-68.5 2.2-.9 1.6.4 5.4-3.5 5.2 0-13 0-26 0-39 3.2-.4 1.8.7 3.5 2 1.3 1 3.7 2.7 5.2 3 3.6.6 36.5.3 48.5 2.5 1.1-.5 2.4-1.7 3.2-2 1-.4 2-1 3-1.5 4.7-2.5 12.2-8.3 17.2-11.5 4.4-2.8 14.8-7.7 16-8.5 8.5-6.1.9-23.5-3.5-25.5-3.8-1.8-74.6-7.1-84.2-7.5-.9-2.7-6.4.3-9-.5 0-4.7 0-9.3 0-14 1.7.3 2.7-.5 3.5-.5 7.3-.1 15 2.7 22.2 2 15.7-1.5 14.5-16.3 20.8-27.2 0-2.2-11-6.5-13.2-7.8-1.8-1.1-11.8-8-12.5-8-5.4 2.8-10.8 5.7-16.2 8.5-1.5.8-2.7 2-4.5 2 0-15.8 0-31.7 0-47.5 3.6-1.1 1.8.8 4 1.5 1.3 3.6 9.4 14.9 13.3 15.5 7.2 1.1 22.4-14.1 29.2-18.2-8.7-15.8-20.9-39-34.2-50.8-.9-.8-7.8-6.3-8.3-6.5-1.2-.5-1.5.6-4 0-.1-16.5.2-32.9.4-49.4z" fill="#f4e8e2"/><path d="m76.7 163c1.4-.1 2.1-.2 3.2.8 1.2 1.1 13.9 27.5 14.5 29 .8 2.2 2.6 4.8-.2 6.2-1.8.9-31.5-2.8-36.2-3.8 2.8-6.5 11.8-31.6 18.7-32.2z" fill="#82bccc"/><path d="m99.7 259.5c3.8-.7 7 1.1 8.8 4.2 2 3.6 4.9 30.2-.8 29.8-1.6-.1-18.3-20.9-21.2-23.2 2.5-2.3 10.7-10.4 13.2-10.8z" fill="#82bccc"/><path d="m59.2 127.5c18.7 27 .1 20.7-19.2 13.8 9.6-7 9.6-7 19.2-13.8z" fill="#82bccc"/><path d="m129 5.5c.1 2.1-1.4 3.5-2.5 5-1.5 2.1-11.1 14.8-10.5 16.2 14.3 5.7 54.3 12.4 64 3-4.2-5.1-14.2-13-17.5-17.8-1.4-2-2.6-3.8-2.5-6.5h12.5c.1 1.6-1.1 7.8-1 8.2.3 1.1 14.9 14 17 15.8 22.7 19.3 32.6 19.3 57 45.2 9.6 10.3 59.4 70.6 66.5 81 11.1 16.4 25.8 50.3 35.2 57.8 5.4 4.3 10.1 5.5 16.8 5.5 1.2 4.1 1.8 8.3 2.5 12.5-5.8 1.5-32.5-.3-34.2.5-1 .4-1 4.7-.8 5.2 1 2.3 31.5-.1 36-.2 18.3-.5 54.3-.9 70-3 4.4 1.3 7.8.8 8-4v18.5c-18 1.9-93.8 2.2-101.8 4-16.6 3.7-16.1 36.2 6.5 39 12.3 1.5 76.1-.5 95.2.5v15c-18.3.4-69.7-2.5-81.8-1-5.7.7-13.2 4.4-15.2 10.2-5.4 15.6 19.1 76 36.2 79.2 9.5 1.8 14.7-3.4 15.5-3.5 1.1-.2 2.7 1.6 5.8 1-1.1 1.6-.9 1.9-1 2-3.7 5.6-8.1 9.2-4 16.2 3.7 6.3 35.1 15.4 43.2 18.8-.6-6.8 3.4-18.1-4.2-19h.5c2 .1 3.6.9 4 .2-.6-33.8-1.4-68.3 1-101.2-.1 40.4.1 80.8 0 121.2-.6 1.4-27.9.7-31.5.8-24.4-14.5-40.9-21.5-54-48.2-7-14.4-15.3-40.5-20-56.5-4.9-16.6-23.5-84.9-24-97.8 0-1-.6-1.2-.5-2 .2-.8.2-.8.5-1.5 1.6-1.7 12.1-1.8 10-6.2-.8-1.8-10.3.5-11.5-2.2-.3-2.2-1.2-4.3-1.5-6.5 6.5.7 16.6-4 11.5-11.5-2.5-3.7-5.8-3-9.5-2.5-7.7-17.4-11.6-26.7-23-42.2-9.9-13.6-64.6-79.4-74.8-87.8-4.2-3.4-23.5-15.6-28-16.5-6.7 0-49.7-3.2-52-2-1 .5.8 1.5 1.2 2.5-13.8-10.3-29.3-17.8-44-26.5 1.4-2.1 8.8-12.7 9-13.5.4-1.6-.4-3.4-.5-5 8.8 0 17.5-.4 26.2-.4z" fill="#f4e8e2"/><path d="m379 5.5c22.3.5 45.1-1 67 .8.1 2.2-.1 4.5 0 6.7-1.8 0-1.8 0-3.5 0-134.9 0-134.9 0-269.8 0 7.9 8.3 7.9 8.3 15.8 16.5-2.1-1.7-16.7-14.6-17-15.8-.1-.4 1.1-6.6 1-8.2 68.8-.2 137.6.7 206.5 0z" fill="#d3e2e8"/><path d="m160 5.5c-.1 2.7 1.1 4.5 2.5 6.5-1.2.2-1.8-1.4-2.2-1.5-3.2-.8-26.6.6-33.8 0 1.1-1.5 2.6-2.9 2.5-5 10.3-.1 20.6 0 31 0z" fill="#d3e2e8"/><path d="m230 416.5c4.1 5.2 9.4 9.8 13 15.5-1.8 0-3.7 0-5.5 0-23.8 0-47.7 0-71.5 0 .2-6.5-.1-13-.5-19.5 7.9 9.7 20.4 11.7 31.8 15 4.6.2 26.4-8.7 32.7-11z" fill="#f4e8e2"/><path d="m103 6c.1 1.6.9 3.4.5 5-21 0-21 0-42 0-4.3-1.6-8.9-2.3-13-4.5 18.1-.2 36.3-.4 54.5-.5z" fill="#d3e2e8"/><path d="m103.5 11c-.2.8-7.6 11.4-9 13.5-11.1-4.1-21.9-9.4-33-13.5z" fill="#82bccc"/><path d="m47.5 7c1.3 0 .9-.5 1-.5 4.1 2.2 8.7 2.9 13 4.5 11.1 4.1 21.9 9.4 33 13.5 14.7 8.7 30.2 16.2 44 26.5 29.2 21.8 40.5 48 58.5 78.2 4.7 6.5 10 13 14 19.8-15 .7-18.8 1.6-29 15-.8.5-6.9 5.8-7.5 6.5-17.7-29.7-27.5-64.2-51-90.2-23.9-26.6-59-45.8-92.8-56.3v1c9.3 5.4 18.9 12.3 26.3 20.2 17.4 18.6 41.7 65.5 57 89 14 28.8 14 28.8 28 57.5 1.8 2.6 1.8 2.6 3.5 5.2-6.8 8 2.4 15.2 10.5 14-1.6 5.7-6.6 15.4-4.5 17.5-1.4.7-2.5 3.7-2.5 4-3.3 1-24.7 1.2-25.8 2-5.4 4.4 18.6.2 26.2 1-.2 3.5.5 7.1.5 10.5v6c.1 4.5-.1 9 0 13.5v6.5c-2.5 1.8-26.8-1.7-23.5 2.8.8 1 22-.2 25 .2.1 1.7-.1 3.3 0 5 .1 2.8-.1 5.7 0 8.5-2.3.4-26.8-.6-27 .8-.5 3.5 22.8.9 26.5 1.8.1 4 1 8.2.5 12.2.9 1.3 3.7.6 6.5.8v3c-.8 35.5 5.4 70.2 7.5 105.5.4 6.5.7 13 .5 19.5-16.3 0-32.7 0-49 0 .5-89.6.5-89.6 1-179.3-1.2-36.7-19.9-69.1-36-101-18.8-37.4-35-65.5-57.4-100.7 5.2-1.4 24.7.2 25.7-.5.3-.2.4-1.6.2-1.8-.8-1.1-25.4-.6-26.7-.2-.4.1-.3.7-.2 1-2.4-3.8-13.3-18.7-14-21.2-1.5-5.2-0-16-.5-21.8 12.8-.7 25.7.6 38.5.5z" fill="#f6af27"/><path d="m47.5 7c-12.8.1-25.7-1.2-38.5-.5-.8 0-.8 0-1.5 0 0 0-.5.1-.5-.5 6.4.5 38.3-.7 40.2 0 .4.1.3.6.3 1z" fill="#2b2111"/><g fill="#363f2e"><path d="m151.2 380c8.3-.2 8.6 2 3.5 3-1.3.3-25 2.3-25.8 1.2-.1-.1-.1-2 .2-2.2 1-.7 19.7-2 22.1-2z"/><path d="m24.5 51c-.3-.5-.7-1-1-1.5 0-.3-.1-.9.2-1 1.3-.3 25.9-.8 26.7.2.1.2.1 1.5-.2 1.8-1.1.7-20.6-.9-25.7.5z"/><path d="m86.2 152c1.4-.7 29.6-.6 31 0 8.1 3.5-23.4 2.3-31 3-1.1-.7-1.1-2.5 0-3z"/><path d="m145.2 335.5c5.2 0 11.7.3 7 2.5-1.2.6-26.7 2-27.2.8-.5-1 .3-1.9 1.2-2.2.9-.5 16.8-1.1 19-1.1z"/><path d="m149 232.5c0 .2.6 1.4.5 3-7.7-.8-31.6 3.4-26.2-1 .9-.9 22.3-1 25.7-2z"/><path d="m151.5 288.5c.1 2.5-.5 2.4-.5 2.5-3.7-.8-27 1.8-26.5-1.8.1-1.3 24.7-.3 27-.7z"/><path d="m139.7 305c10.9-.1 12.8 1.6 7 2.5-1.2.2-24 1.7-24.8.8-.1-.1-.1-2 .2-2.2.8-.7 15.6-1.1 17.6-1.1z"/><path d="m132.7 196.5c9.7 3.1-22.2 5.6-22.8 4.2-1.3-3.5 19.7-2.6 22.8-4.2z"/><path d="m151.5 275c-3-.5-24.2.7-25-.2-3.3-4.4 21-.9 23.5-2.8 0 .4 1.4 1.4 1.5 3z"/></g><path d="m56.2 95c1.2-.8 27.2-.6 28.5 0 7.3 3.2-20.6 1.3-28 2.5-.9-.5-1-2.2-.5-2.5z" fill="#31433a"/><path d="m48.2 77.5c1-.6 22.5-.6 23.5 0 .3.2.4 1.6.2 1.8-.7.9-22.2.7-23.2.2-.6-.3-1.2-1.7-.5-2z" fill="#363f2e"/><path d="m56.2 54 3 15c-9.1 1.4-5-2.7-3-15z" fill="#3d3320"/><path d="m95.2 132c.4 1.7 3 12.1 2.8 12.8-.4 1.1-5.5.9-5.8.8-.9-.8 2.1-12 3-13.6z" fill="#3d3320"/><path d="m32.7 29.5c2.2-.9 3 10.2 2.5 10.5-.2.1-4.5.1-4.7-.2-.5-.7 1.6-10.1 2.2-10.3z" fill="#33332f"/><path d="m156.7 109.5c1.1-.4 22.4-.5 23.5 0 .7.3 1.1 1.9.8 2.2-.8.9-23.1.7-24.2.2-1.1-.4-1.1-2-.1-2.4z" fill="#363f2e"/><path d="m113.7 53.5c1-.6 22.5-.6 23.5 0 .3.2.4 1.4.2 1.8-.4 1.1-22.2 1.2-23.2.8-.9-.6-1-2.3-.5-2.6z" fill="#363f2e"/><path d="m129.7 72c1.1-.7 24.9-.7 26 0 .3.2.4 1.6.2 1.8-.8 1-25.2 1-26.2.2-.4-.3-.4-1.8 0-2z" fill="#2e3f40"/><path d="m91.7 28c1 4.2 2.5 14.8-3 12.5-1.5-.7 2.2-12.6 3-12.5z" fill="#363f2e"/><path d="m339 423.5c2 .6 12.7 7.1 15 9-14.8.1-29.7-.5-44.5-.5-.8.2-1.3-.1-2-.5-6.7-3.5-19.3-12.2-25-17.5 12.2 3.8 49.9 7.4 56.5 9.5z" fill="#f4e8e2"/><path d="m446 70.5c.1 53.2-.4 106.3-.5 159.5-.2 4.8-3.6 5.3-8 4 1.8-.2 3.7.1 5.5-.8-.6-11.5.6-23.1.5-34.5 0-.1-.7-1.2-1-1.2.5-.6.5-.6 1-1.2.5-4.2-.5-8.6-.5-12.8-.1-37.5 0-75 0-112.5.6 0 .4 1.2 3-.5z" fill="#b5c8ba"/><path d="m446 13c.6 12.5 0 28 0 41-1.6.2-.6-2.8-2.5-1-.2 0-.3 0-.5 0-.2-20-.2-20-.5-40z" fill="#b5c8ba"/><path d="m386 432c-8.5 0-17 .5-25.5.5.2-.9-.3-4.1.2-4.5 1-.7 23.5-.7 24.5 0 .7.4-.3 2.6.8 4z" fill="#6b4321"/><path d="m446 54v16.5c-2.5 1.8-2.4.5-3 .5-.2 0-.3 0-.5 0 1.6-5.8.5-12 1-18 1.8-1.9.9 1.2 2.5 1z" fill="#d7caa1"/><path d="m12.5 388.5c-1.2.1-1.2.1-2.5.2.4 19.9.4 19.9.8 39.8 42.9.2 42.9.2 85.8.5 0 0 1.1.2.2 1-2.1 2-9.6-.2-10.2 2-24.9.1-50.1-.1-75 .5-1.4 0-1.7.6-2.5 0-.1-.1-1.3.2-1.5-.2.1-14.7-.5-29.3-.6-43.8 1.9.7 4.9-2.8 5.5 0z" fill="#d3e2e8"/><path d="m79 288c11.3 9.8 24.6 24.2 29 38.8 6.6 22.1.3 47.5-25.8 50.2-16.6-.2-60.4-3.9-71.8-3 1-16.6-1.3-70.4 0-79.8 3.4-23 47.5-22.3 68.6-6.2z" fill="#178a8b"/><path d="m41.7 292c3.7-1 9.1 1.1 10.5 5 3.8.1 8.9-.9 11 3.5 10.5-4.5 25.9 5.2 17.5 7.5-2.5.7-17.2-.7-20 0-2.2.6 2.8 3.8-21.5 2.5-4-.2-8.9-1.8-10.5-2-1.8-.2-12 2.4-12.2-1.8-.3-4 7.4-3 7.8-3.2.7-.5-1.8-9.4 12.5-3 .9-.4 1.1-7.5 4.9-8.5z" fill="#eec563"/><path d="m72.7 327.5c4.9-1.3 5 7.2 0 5.5-2-.7-2.3-5 0-5.5z" fill="#bdd531"/><path d="m47.7 338c3.7-.6 4.1 5.5 1 6-3.4.6-4.3-5.5-1-6z" fill="#bdd531"/><path d="m12.5 388.5c20 .7 63.9 4.2 80.2 3 .6 0 4.4-1.9 8-1.5-.6 7.5-2.3 34.7-4.2 39-42.9-.2-42.9-.2-85.8-.5-.4-19.9-.4-19.9-.8-39.8 1.3-.1 1.3-.1 2.6-.2z" fill="#82bccc"/><path d="m76.7 414c1.5-.3-.3 9.9-.8 10.2-.4.3-5.8.4-6.2.2-1.7-.6 6.3-10.3 7-10.4z" fill="#f5d75f"/><path d="m31.7 394c6.1-3.1 6.8 10.5 1.5 8-3-1.5-2.6-7.5-1.5-8z" fill="#f5d75f"/><path d="m11 116c-.2-.6-.6-1.3-1-1.8.7-10.8-.9-53.3 0-57.5 0-.2.7-.8 1-.8.5.2 7.3 5.7 8.3 6.5 13.3 11.8 25.6 35 34.2 50.8-6.9 4.2-22.1 19.4-29.2 18.2-3.9-.5-12.1-11.8-13.3-15.4z" fill="#82bccc"/><path d="m21.7 101c3.2-1 3 4 2.5 7.5-14-4.4-15-.9-2.5-7.5z" fill="#f5d75f"/><path d="m16 207.5c9.7.4 80.4 5.7 84.2 7.5 4.4 2 12 19.4 3.5 25.5-1.2.8-11.6 5.7-16 8.5-5 3.2-12.5 9-17.2 11.5-1.5-1.6-11.5-15.3-11.5-16.3 0-.9 1.6-3.1 2-3.2 1.2-.4 5.3.4 6.8 0 .6-.2 8.8-6.4 10-6.5 1.8-.1 1.7 2.3 3.8 2.5 2.6.2 4.5-5.8 4.5-6.2.3-7.1-5.9 1-8 2.2-.4.2-1.9-.2-2.2 0-1.6 1-9.5 6.5-10.5 6.5-6.6-3.7-7.6-6.8-12 1-3.5-.4-17.6-1.2-19.2-1 0-.6 1-1 1-1.2.2-2-8.5-3.5-9-2-.4 11.7 1.6 4.1 8 3.2 0 2.7 15.4 1.3 19.2 1.5 4 6.6 11.9 14.2 14.2 21-.8.3-2.2 1.5-3.2 2-12-2.2-44.9-1.9-48.5-2.5-1.6-.3-3.9-2-5.2-3-.2-25.4-.2-25.4-.5-50.8 1.3-1.7 4.3-.3 5.8-.2z" fill="#82bccc"/><path d="m78 233c1.8 2 1.8 2 3.5 4-2.1-.2-2-2.6-3.8-2.5-1.2.1-9.4 6.3-10 6.5-1.5.4-5.6-.4-6.8 0 1.1-.8 2.6-.8 2.5-1.8-6-5.2-9.7-1.1-9 2.5.4 2 9.8 10.9 3 2 2.3-2.8 3.3-2.6 3.5-2.8-.4.1-2 2.4-2 3.2 0 1 10 14.7 11.5 16.3-1 .5-2 1.1-3 1.5-2.3-6.8-10.2-14.4-14.2-21-3.8-.2-19.3 1.2-19.2-1.5 1.7-.2 15.8.6 19.2 1 4.4-7.8 5.4-4.7 12-1 1 0 8.9-5.5 10.5-6.5.4-.2 1.9.3 2.3.1z" fill="#aabab3"/><path d="m34 239.5c-6.4.9-8.4 8.4-8-3.2.5-1.5 9.2 0 9 2-.1.2-1 .6-1 1.2z" fill="#eec563"/><path d="m81.5 237c-1.8-2-1.8-2-3.5-4 2.1-1.2 8.3-9.4 8-2.2-.1.3-1.9 6.4-4.5 6.2z" fill="#eec563"/><path d="m61 241c-.2.1-1.2-.1-3.5 2.8 6.8 8.9-2.6 0-3-2-.7-3.6 3-7.7 9-2.5.1.9-1.4.8-2.5 1.7z" fill="#f3d990"/><path d="m162.5 12c3.3 4.8 13.3 12.7 17.5 17.8-9.7 9.4-49.7 2.7-64-3-.6-1.4 9-14.1 10.5-16.2 7.2.6 30.6-.8 33.8 0 .3-0 1 1.6 2.2 1.4z" fill="#82bccc"/><path d="m442.5 197.5c-24.2 14-47.9 29.7-76 34.5 0-.2 0-.3 0-.5-.7-4.2-1.3-8.4-2.5-12.5 25.5.2 57.3-23 79-35.5 0 4.2 1 8.5.5 12.8-.5.5-.5.5-1 1.2z" fill="#f6af27"/><path d="m366.5 232c.2 1.6.4 3.6 1 5-4.5.1-35 2.5-36 .2-.3-.6-.2-4.8.8-5.2 1.8-.8 28.5 1 34.2-.5 0 .1-.1.3 0 .5z" fill="#82bccc"/><path d="m324.5 199.5c5.1 7.5-5 12.2-11.5 11.5-1.4-.2-1-.5-1-.5-1.3-2.7-1.6-5.8-2.5-8.5 4.9-.7 11.1.4 15-2.5z" fill="#027a8e"/><path d="m324.5 199.5c-3.8 3-10 1.8-15 2.5-.3-.8-1.2-2.1-1.5-3 1.8-.6 5.3-1.8 7-2 3.6-.5 7-1.2 9.5 2.5z" fill="#1d9eb6"/><path d="m316 226c-1.6-1.6-1.2-6.9-1.5-8.5 1.2 2.7 10.7.4 11.5 2.2 2 4.5-8.4 4.5-10 6.3z" fill="#82bccc"/><path d="m146.5 197c.2 1.3-2 2.4-2 2.8.1.9 16.4 4.2 17-.2h.5c-2.8 7.4-1.9 10.9-6 11.5-8.1 1.2-17.3-6-10.5-14 .5-.1.5-.1 1-.1z" fill="#027a8e"/><path d="m161.5 199.5c-.6 4.5-16.9 1.2-17 .2 0-.3 2.2-1.5 2-2.8 4.4-1.3 10.9.2 15 2.6z" fill="#1d9eb6"/><path d="m316 229.5c.5 12.9 19.1 81.1 24 97.8 4.7 16 13 42.1 20 56.5 13.1 26.8 29.6 33.7 54 48.2-9.3.1-18.7 0-28 0-1-1.4-.1-3.5-.8-4-1-.7-23.5-.7-24.5 0-.6.4-.1 3.6-.2 4.5-2.2 0-4.3 0-6.5 0-2.3-1.9-13-8.4-15-9-33.2-27.7-38.7-76.3-49.5-116 0-1.2 0-1.2 0-2.5h26.8c1.3-.8-.1-1.3.2-2.5 1-3.5.7-10.7-3.5-12-.1-3.7.1-7.3 0-11 1-2.9 1-2.9 2-5.8-.4-2.6.3-5.2.5-7.8.3-4.3-.1-8.7 0-13 .1-2.6 0-4.9 0-7.5-.1-6.2-.8-16 .5-15.9z" fill="#f6af27"/><path d="m334.2 342.5c4.2 0 4.1 1.7 3 2.5s-24.7 2.5-26 2.5c-4.7-.1-4.5-1.9-2.5-2.5 1.2-.4 23.9-2.5 25.5-2.5z" fill="#363f2e"/><path d="m337.2 361c6.7-.2 8.1 1.3 4 2.5-1.1.3-20.8 2-22 2-6.9.1-6.7-1.7-3-2.5 1-.3 19.4-2 21-2z" fill="#363f2e"/><path d="m354.7 409.5c.3 2.2 3.5 13.9 2 14.5-8.4.2-4.3-2.9-2-14.5z" fill="#2b2111"/><path d="m316.5 302.5c-5.2.2-3.3-5-3.5-12 4.2 1.3 4.4 8.5 3.5 12z" fill="#c5802a"/><path d="m405 395c.1-.1-.1-.4 1-2 .4-.7 1.5-.9 2-1.8-8.7 1.8-8.3-7.7-3.8-8.8 6.8-1.6 9.7 6.7.8 12.6z" fill="#d3e2e8"/><path d="m445.5 307v3c-2.4 32.9-1.6 67.4-1 101.2-.4.7-2-.1-4-.2-4.7-3.5-10.4-4.3-15.5-7-4.5-2.4-5.3-2.2 0-6.2-.4-.4-.4-.4-.8-.8-2-.6-4.2 1.2-5 1-1-.2-14.1-10.1.5 6 1.2-.1 3.8.5 4.8 1 .1.1 0 1.2 1.8 2 3.1 1.5 10.3 3.7 13.8 4 7.6.9 3.7 12.2 4.2 19-8.2-3.4-39.6-12.4-43.2-18.8-4.1-7 .3-10.7 4-16.2 9-5.9 6.1-14.1-.8-12.5-4.5 1.1-4.9 10.6 3.8 8.8-.5.8-1.6 1.1-2 1.8-3 .6-4.6-1.2-5.8-1-.8.1-6 5.3-15.5 3.5-17.2-3.3-41.6-63.7-36.2-79.2 2-5.8 9.5-9.5 15.2-10.2 11.9-1.7 63.4 1.2 81.7.8z" fill="#82bccc"/><path d="m440.5 411c-.2 0-.3 0-.5 0-3.5-.3-10.6-2.5-13.8-4-1.8-.8-1.6-1.9-1.8-2 1.3.1 1-.1.5-1 5.2 2.7 10.8 3.5 15.6 7z" fill="#b7b3af"/><path d="m425 404c.5.9.8 1.1-.5 1-1-.5-3.5-1.1-4.8-1-14.6-16.1-1.5-6.2-.5-6 .8.2 3-1.6 5-1l.8.8c-5.4 4-4.5 3.8 0 6.2z" fill="#f3d990"/><path d="m411.5 331c.6.3 1.3.5 1.8 1 .4-.4.4-.4.8-.8-2-3-.5-3.1-.5-3.2 1.6 5.8 24.9 20 14.8 17-8.6-7-8.6-7-16.9-14z" fill="#b7b3af"/><path d="m413.5 328c0 .2-1.5.2.5 3.2-.4.4-.4.4-.8.8-.5-.5-1.2-.7-1.8-1-1.2-.6-6.8-5.9-6.5-6.8 12.7 1.3 8.8.7 8.6 3.8z" fill="#f5d75f"/><path d="m378 339.5c2.8-4.7-.8-5-6.5-6.8 2 4.7 3.6 10.4 5.5 8.2-2.3 2.3-3.9-1.3-5-4.2-3.7-9.6 3.6-3.4 14.2 2.2h2c1.9 1 8.4 4.9 2.5 4-3.2-.4-8.4-6.7-12.7-3.4z" fill="#aabab3"/><path d="m378 339.5c-.1.2-.9 1.4-1 1.5-1.9 2.2-3.5-3.6-5.5-8.2 5.6 1.6 9.3 2 6.5 6.7z" fill="#eec563"/><path d="m415.5 369c-.4-1.4-.5-2.6-.8-4-1.1.7-4.5 2.8-4.8 3 0-.6 1-.5-.2-1.5-4.7-.9-8.4-4.4-12.8-6 .2-.8.2-.8.5-1.5.6.6 5.9 2.3 7.2 3 1.7.9 5.6 4.5 6 4.5 1.2 0 5.6-6.5 4.9 2.5z" fill="#a0bdb4"/><path d="m415.5 369c.4 1.2.3 1.7 1.5 2.5-.9 0-7.1 1.5-8-.5-.6-1.4 1-1.2 1-3 .2-.2 3.6-2.3 4.8-3 .1 1.4.2 2.5.7 4z" fill="#eec563"/><path d="m397.5 359c-.2.8-.2.8-.5 1.5-.2-.1-2.6 1.3-4.8-.5-4.5-3.8 3.7-6.5 4.5-6 1.2.6-2.8 1.9.8 5z" fill="#f5d75f"/><path d="m417 371.5c12.8.7 9.9 2.2-.8 1.5-3.9-.3-6.3-.1-7.2-2 .9 2 7 .4 8 .5z" fill="#a0bdb4"/><path d="m410 368c0 1.8-1.6 1.6-1 3-1.5-3.1.3-2.5 1-3z" fill="#a0bdb4"/><path d="m445.5 248.5v43.5c-19.1-1-83 1-95.2-.5-22.6-2.8-23.1-35.3-6.5-39 7.8-1.8 83.6-2.1 101.7-4z" fill="#82bccc"/><path d="m391.2 260.5c.4-.2 9.1-.3 9.5 0 .7.5-.5 5.1-.8 5.2-1.5 1.2-15.2-2.1-8.7-5.2z" fill="#eec563"/><path d="m367.5 274c4.8 2.1 3.9 3.8 2.5 7-.9-.2-1.1.9-2.8 0-4.1-4.4-9.4-11.3.3-7z" fill="#eec563"/><path d="m421.7 267.5c.6-.2 13.1 3.2 12.2 4.2-1.6-.2-11.7 1-12.2.8-1.1-.6-1.1-4.6 0-5z" fill="#eec563"/><path d="m370 281c1.4-3.2 2.3-4.9-2.5-7 6.5 1.2 4 5.2 4.2 5.5 23.1.4 14.5 4.4-1.7 1.5z" fill="#aabab3"/><path d="m315 197c-1.7.2-5.2 1.4-7 2-1.9-5.4-3.5-10.8-6-16-4.8-10.1-9.1-17.3-20.5-21-5.1-5.1-11.2-11.9-18.8-13-2.6-.4-45.6-.3-51.8 0-4-6.8-9.3-13.2-14-19.8-17.9-30.2-29.3-56.4-58.4-78.2-.4-1-2.3-2-1.2-2.5 2.3-1.2 45.3 2 52 2 4.5.9 23.8 13.1 28 16.5 10.2 8.3 64.8 74.2 74.8 87.8 11.2 15.5 15.1 24.7 22.9 42.2z" fill="#82bccc"/><path d="m239 134c-.9 2.4-1.4 4.5-4.5 4.5-2.6-1.5-1.3-8.6-1.2-11.5 4.3 2 5.4 6.6 5.7 7z" fill="#f3d990"/><path d="m218.2 95c6.1 7.8 14.4 13.7 3.2 12.2.8-3.6-4-11.9-3.2-12.2z" fill="#f3d990"/><path d="m234.5 138.5c3.1 0 3.6-2.1 4.5-4.5.1.1-.4.6 1.8 3 17.9 4.9 12.3 7.9-2 .5-1.7 0-1.5 2.6-4.3 1z" fill="#a8b5ba"/><path d="m227.7 109c.7-.2 4.3 2.8 4.5 3 3.8 5.2-7.5-2.3-4.5-3z" fill="#b7b3af"/><path d="m191.2 68c14.1-3.5 9.6 15.9 7 23-1.9-3.6-1.9-3.6-3.8-7.2-10.9-2.4-8.7-14.5-3.2-15.8z" fill="#edf3f7"/><path d="m197 81c1.1-2 .1-8-3.2-7-3.8 1.2 2.1 4.7 1.8 7.5-9.3.9-8.7-11.9-2.2-12.5 5.8-.6 9.2 9.3 3.6 12z" fill="#d8413d"/><path d="m197 81c-.1 0 .5.3-1.5.5.3-2.8-5.6-6.3-1.8-7.5 3.3-1.1 4.3 4.9 3.3 7z" fill="#e5e4e9"/><path d="m437.5 234c-15.7 2.1-51.7 2.5-70 3-.6-1.4-.8-3.4-1-5 28.1-4.8 51.8-20.5 76-34.5.3 0 1 1.2 1 1.2.1 11.4-1.1 23-.5 34.5-1.8.9-3.7.5-5.5.8z" fill="#178a8b"/><path d="m442.5 13c.2 20 .2 20 .5 40-4.2.2-8.5.9-12.8.5 3.8-14.5-14-16.3-19.8-9.8-.4.5-.2 4.6-3.2 2.8-1-.6-6.1-18.7-16-3.5-4.6-2.1-13.1-3-16 2-9.1-2-10.4 3.8-11 4-.8.3-15.8-1-11.2 8.8 2.6 5.4 30.9 1.4 32.8 2.8.4.3.4 5.7 0 6-.7.5-8.6-.8-11.5.5-4.6 2-7.7 16.1 13.5 12 3.9 9.5 11.8 5 21.5 6 8.7-10.3 11.6.6 14.5-11 9.6 1 9-2.7 10-3 .6-.2 6.7 0 8.8 0h.5c0 37.5-.1 75 0 112.5-21.7 12.5-53.5 35.7-79 35.5-6.7 0-11.4-1.2-16.8-5.5-9.4-7.5-24.1-41.4-35.2-57.8-7.1-10.4-56.9-70.7-66.5-81-24.4-26-34.3-26-57-45.2-7.9-8.2-7.9-8.2-15.8-16.5 134.8-.1 134.8-.1 269.7-.1z" fill="#178a8b"/><path d="m371.7 114c7.6-.5 9.8 7.3 10.5 7.5 1 .3 6.9-2.1 8.5-1.5.2.1 1.6 2.7 2.5 3 3.5 1 8.1-4 15 2.5 23.3-6.1 23.9 19.6 3.5 15-3.3 20.2-28.5 6.9-41.5 14-6-2-20.4-3.5-26-2.5-.6.1-5.1 3.3-8 3-.3 0-6.1-2.5-6.2-2.8-.6-.9 0-6.7-1.2-7.2-14.7 1.1-14.3-18.4 9.5-12.5 9.7-12 10.3-4.2 24-5 .9-.5-.6-12.8 9.4-13.5z" fill="#eec563"/><path d="m316.2 79c5.2-1.3 6.1 2.4 6.5 2.5 2 .6 10.4-2.1 13.5 6.5 12.1-3.7 15.2 2.8 16 3 2.7.8 12.1-1.9 10.8 3.8-.9 3.7-9 1.7-11.8 2.2-.9.2-4.8 5.5-18 2.5-3.2 6.3-36.9 3.6-37.2-.2s5.9-3 6.2-3.2c1-.7-1.6-7.9 8.5-8 .2-3 2.6-8.4 5.5-9.1z" fill="#eec563"/><path d="m304.2 25c2.8-.1 6.7 2.1 7.5 5 12.6-2.4 12 6.8 7.5 8-1.8.5-25.4.2-26.5-.5-2.9-1.7-1.4-7 5-6 0-3.4 3.2-6.4 6.5-6.5z" fill="#eec563"/><path d="m355.7 182.5c7.2-1.8 9 3.7 9.5 4 1.7.9 6.9-.8 5.8 3.8-.7 2.6-21.1 4.5-22.2 4.2-.6-.1-2.6-2.7-2.2-3.8 5-2.7 7.3-7.8 9.1-8.2z" fill="#eec563"/><path d="m281.7 31c3.9-1.6 5.5 4.6 2.5 5.5-3.8 1.1-4.8-4.6-2.5-5.5z" fill="#bdd531"/><path d="m395.2 156.5c3.5-.8 4.3 4.7 1.5 5.5-4.1 1.1-4.1-5-1.5-5.5z" fill="#bdd531"/><path d="m246.7 27c3.8-1.2 4.5 4.9 1.5 5.5-3.5.6-4-4.7-1.5-5.5z" fill="#bdd531"/><path d="m420.7 165.5c4.2-1.2 3.9 4.9 1.5 5.5-3.4.8-4.4-4.7-1.5-5.5z" fill="#bdd531"/><path d="m343.7 30.5c3.3-.7 4.5 4.7 2 5.5-3.7 1.2-5-4.9-2-5.5z" fill="#bdd531"/><path d="m287.2 62c2.9-.6 4.3 5.5 1 6-3.2.4-3.3-5.6-1-6z" fill="#bdd531"/><path d="m443 53h.5c-.5 6 .6 12.2-1 18-2 0-8.1-.2-8.8 0-1 .3-.4 4-10 3-2.9 11.6-5.8.7-14.5 11-9.7-1-17.6 3.5-21.5-6-21.2 4.1-18.1-10-13.5-12 2.9-1.3 10.8 0 11.5-.5.4-.3.4-5.7 0-6-1.8-1.3-30.2 2.7-32.8-2.8-4.6-9.7 10.4-8.5 11.2-8.8.6-.2 1.9-6 11-4 2.9-5 11.4-4.1 16-2 9.9-15.2 15 2.9 16 3.5 3 1.8 2.8-2.3 3.2-2.8 5.8-6.5 23.6-4.8 19.8 9.8 4.4.4 8.6-.2 12.9-.4z" fill="#eec563"/><path d="m403.7 61.5c2.6 4.9 2.6 4.9 5.2 9.8-8.1-1.9-12.4.7-13.2.2-.5-.3-1.5-5.1-1.2-5.8.3-1 7.8-3.3 9.2-4.2z" fill="#178a8b"/><path d="m174.5 170.5c-1.2 1.6-5.3 10.3-6.5 13-2.3 5.2-4 10.7-6 16-.2 0-.2 0-.5 0-4-2.4-10.5-3.9-15-2.5-.5 0-.5 0-1 0-1.8-2.6-1.8-2.6-3.5-5.2-14-28.8-14-28.8-28-57.5-15.3-23.5-39.6-70.4-57-89-7.4-8-17-14.9-26.3-20.3 0-.5 0-.5 0-1 33.8 10.5 68.9 29.8 92.8 56.2 23.4 26 33.3 60.5 51 90.3z" fill="#82bccc"/><path d="m98 84s.1.7-.8.5c-.1-1.7-.9-1.6-1.2-2-.4-1.7-6.4-13.4-4.2-13.5 1 1.3 7.1 6.8 7.2 7.2.2 1.2-1.7 3.7-1 7.8z" fill="#f3d990"/><path d="m98 84c-.6-4.1 1.3-6.6 1-7.8-.1-.5-6.3-6-7.2-7.2-2.2.1 3.9 11.8 4.2 13.5-2.8-3.3-9.1-17.7-4.2-15 .6.3 8.6 8.7 8 10 3.8 2.3 11 7 6 6.5-.6-.1-5.3-5.3-7-4-.8.5.3 2.7-.8 4z" fill="#aabab3"/><path d="m131.2 134c.4.1 4.4 5.5 4.8 6.2 7.2 13.5-3.5 0-4.2-.2-1.1-.3-4.1.6-4.2.2 1.7-3.1 1.7-3.1 3.6-6.2z" fill="#eec563"/><path d="m113.7 97c14.5 6.6 5.2 10.5 2.2 8.8-.3-.3-.4-4.3-2.2-8.8z" fill="#f5d75f"/><path d="m156.7 162c12.7-1.6 12.7 17.7.5 16-8.5-1.3-8.7-15-.5-16z" fill="#edf3f7"/><path d="m156.2 164c9.1-2.2 10.4 10.9 3.5 12-8 1.3-9.7-10.6-3.5-12z" fill="#da6670"/><path d="m156.7 167c4.2-1.4 5.6 5 3 6-3.9 1.5-6-5.1-3-6z" fill="#eaadab"/><path d="m184 307.5c-2 5.4-2 5.4-4 10.8-.5 0-.5 0-1 0 .3-1.9-.9-2.6-1-2.8.2-1.7-.9-2.4-1-2.5-.5-1.6-.8-3.4-1.2-5 2.6-.9 5.4-.4 8.2-.5z" fill="#eec563"/><path d="m199 303.5c-.2 1.3-.4 2.7-.5 4-4.8.1-9.7-.2-14.5 0-2.8.1-5.5-.3-8.2.5.5 1.6.8 3.4 1.2 5-1.1-1.9-2.6-3.4-2.8-5.5-8.1-.2-8.1-.2-16.2-.5 0-1.5 0-1.5 0-3 3.2.2 17.6.5 19-1 6.1 1.7 15.1.1 22 .5z" fill="#60a0af"/><path d="m202 280.5c-.8 7.7-2.1 15.3-3 23-6.9-.4-15.8 1.2-22-.5 2.2-7.4.9-15.4 2-23 7.6 0 15.3.4 23 .5z" fill="#448291"/><path d="m177 313c.4 1.4.4 1.3 1 2.5.1.1 1.3.8 1 2.8h1c2-5.4 2-5.4 4-10.8 4.8-.2 9.7.1 14.5 0v.5c-4.9 48.7-3.1 61.9 26 101.2 1.4 1.9 3.4 2.8 3.5 3s.1 1.9 2 4.2c-6.3 2.3-28.1 11.2-32.8 11-11.4-3.3-23.8-5.3-31.8-15-2.1-35.3-8.3-70-7.5-105.5 8.1.2 8.1.2 16.2.5.3 2.2 1.8 3.7 2.9 5.6z" fill="#82bccc"/><path d="m180.2 360c5-.8 6.5 7.8 1.5 8.5-5.2.7-6-7.8-1.5-8.5z" fill="#cb2127"/><path d="m177.7 331.5c5.4-1.3 6.4 6.8 2 7.5-5.2.8-5.9-6.6-2-7.5z" fill="#cb2127"/><path d="m195.2 402c8.4 2.9 4.4 2.2 5.5 9.5-2.8-.4-6.8-8.6-5.5-9.5z" fill="#f5d75f"/><path d="m178 315.5c-.6-1.2-.6-1.1-1-2.5 0 .1 1.2.8 1 2.5z" fill="#60a0af"/><path d="m192.2 369.5c15.8-.9 9 24.8-5 15-7-4.9-2.8-14.6 5-15z" fill="#d3e2e8"/><path d="m190.7 371.5c13.9-2.6 12.4 15.7 0 13-6.3-1.4-7.6-11.6 0-13z" fill="#e85550"/><path d="m190.7 375c4.6-1.5 6.9 3.7 4 5.5-4.9 3.1-8-4.2-4-5.5z" fill="#e5e4e9"/><path d="m309.5 432c-24 0-48 1.4-72 0h5.5c21.5 0 43 .4 64.5-.5.6.3 1.1.6 2 .5z" fill="#1e160b"/><path d="m282.5 414c5.7 5.3 18.3 14 25 17.5-21.5.9-43 .5-64.5.5-3.6-5.7-8.9-10.3-13-15.5-1.9-2.4-1.9-4.1-2-4.2-.1-.2-2.1-1.1-3.5-3-29.1-39.3-30.9-52.5-26-101.2 13.2.4 26.3-.3 39.5-.5 1.5 17.5 2.4 47.6 9 63.2 5.7 13.5 23.5 33.7 35.5 43.2z" fill="#f6af27"/><path d="m240.7 376c6.1 0 6.4 2.2 2 3-1.8.3-23.3 2.5-24.5 2.5-1.4 0-6.9-.8-4-2.5 1.1-.7 25.2-3 26.5-3z" fill="#363f2e"/><path d="m234.2 365.5c10 4.1-19.8 3.8-24 5.5-8.8-4.1 15-3.3 24-5.5z" fill="#363f2e"/><path d="m232.7 350.5c2 .4 2 2.3-1 3-1.2.3-23.3 2.6-24.5 2.5-3.4-.3-2.4-2.4.5-3 1.2-.3 23.8-2.8 25-2.5z" fill="#363f2e"/><path d="m236 281.5c-.5 2 0 14.5 1 16.5.1 1.7-.1 3.4 0 5 .2 2.8 1 4.3 1 4.5-13.2.2-26.3.9-39.5.5 0-.2 0-.3 0-.5.1-1.3.3-2.7.5-4 .9-7.7 2.2-15.3 3-23 7.4.1 27.5-.8 30.8-.5.7 0 2.3 1.2 3.2 1.5z" fill="url(#a)"/><path d="m207.2 287.5 19.8.8c-14.2 9.2-8.9 9.7-10 12.5-1.8 4.9-1.9-5.6-2-6-.4-1.1-7.2-5.4-7.8-7.3z" fill="#dc7327"/><path d="m163 212.5c1.3 1.6 21 1.4 24.5 1.5 28.2.6 56.8.4 85 0 5.4-.1 28.2.2 31.2-1 3.2-1.3 1.8-3.9 2.2-5 4.2-10.4 2.8.6 6 2.5 0 0-.4.3 1 .5.3 2.2 1.2 4.3 1.5 6.5.3 1.6-.1 6.9 1.5 8.5-.2.8-.2.8-.5 1.5-10.4.6-6.8-3.4-12.8-7.5-14-9.7-32.4 6.3-21.8 20.2 7.5 9.8 24 5.5 34.5 5.2 0 2.6.1 4.9 0 7.5-.9-1.9-11.8 1.3-16.8 2-10.5 1.5-21.2 2.4-31.8 3 2-3.2 1.4-8 .5-11.5-.4-1.5-3.5-9.1-4.8-9.5-30.8-.2-30.8-.2-61.5-.5-1.4.4-4.8 7-5.2 8.5-5.2-2.2-5.2-2.2-10.5-4.5 9.7-13-6.7-34.5-26-16-.6.6-1.6 2.9-1.8 3-.3.2-4.3 0-6.2 1-2.1-2.1 2.9-11.8 4.5-17.5 4.1-.6 3.2-4.1 6-11.5 2-5.3 3.7-10.8 6-16 .6 1.4 1.5 1.7 1.5 2.2.2 1.5-8.5 20.8-6.2 26.9z" fill="url(#b)"/><path d="m195 257v.5c.2 1 .4 1.9 1.2 2.5h69c.3-.1 1.5-1.6 1.8-2 10.6-.6 21.3-1.5 31.8-3 4.9-.7 15.9-3.9 16.8-2-.1 4.3.3 8.7 0 13-54.8 6.5-110.8 8.1-165.5-.5-.1-4.5.1-9 0-13.5 14.7 2.2 29.7 5.4 44.9 5z" fill="#d8413d"/><path d="m315.5 266c-.2 2.5-.9 5.1-.5 7.8-1 2.9-1 2.9-2 5.8-9.2-.4-18.4.4-27.5.5-16.2.2-32.5-.2-48.8 0-1 .7-.7 1.2-.8 1.5-.8-.2-2.4-1.4-3.2-1.5-3.3-.3-23.4.6-30.8.5-7.7-.1-15.3-.5-23-.5-9.2 0-18.3-.1-27.5 0-.1-1.7.1-3.3 0-5-.1-1.6-1.5-2.5-1.5-3 0-3.2 0-3.2 0-6.5 54.7 8.5 110.8 6.8 165.6.4z" fill="#6a3f42"/><path d="m211 149c6.1-.3 49.2-.4 51.8 0 7.6 1.1 13.6 7.9 18.8 13-9.5-3.1-30.5-3.8-41-4-6.7-.1-13.3.3-20 .5-9.1.3-19 .2-28 2-2.9.6-8 2.1-10.5 3.5 10.1-13.5 13.8-14.4 28.9-15z" fill="#4d4d4e"/><path d="m179 280c-1.1 7.6.2 15.6-2 23-1.4 1.5-15.8 1.2-19 1-2.8-.2-5.6.6-6.5-.8.5-4.1-.4-8.2-.5-12.2 0-.1.6 0 .5-2.5-.1-2.8.1-5.7 0-8.5 9.1-.2 18.3-.1 27.5 0z" fill="#1b1c25"/><path d="m196 245c-1 3.3-1.6 8.5-1 12-15.1.4-30.1-2.7-45-5 0-2.1 0-3.9 0-6 10.6-2 22.5 3.9 32-2.5.6-.4 3.2-2.7 3.5-3 5.2 2.2 5.2 2.2 10.5 4.5z" fill="#f48452"/><path d="m161.5 224.5c-11.4 12.9 9.2 24.9 20 16 .2 1.5.2 1.5.5 3-9.5 6.4-21.4.5-32 2.5 0-3.4-.7-7-.5-10.5.1-1.6-.5-2.8-.5-3 0-.3 1.1-3.3 2.5-4 1.9-1 5.9-.8 6.2-1 .2-.1 1.1-2.4 1.8-3 .3.4 1.9 0 2 0z" fill="#d8413d"/><path d="m190 166c-20.2 4.5-22.5 29.6-27 46.5-2.2-6.1 6.4-25.3 6.5-26.8 0-.6-.9-.9-1.5-2.2 1.2-2.7 5.3-11.4 6.5-13 .6-.7 6.7-6 7.5-6.5 2.5-1.4 7.6-2.9 10.5-3.5-.2 2.7-9.6 2.1-2.5 5.5z" fill="#f3d990"/><path d="m302 183c2.5 5.2 4.1 10.6 6 16 .3.9 1.2 2.2 1.5 3 .9 2.7 1.2 5.8 2.5 8.5-3.2-1.9-1.8-12.9-6-2.5-1.1-9-7-27.9-12.5-34.5 5-1.3 4.8 7.2 8.5 9.5z" fill="#f3d990"/><path d="m267.5 246.5c-.3 4.4 1 8.8-2.2 12.5-15.3-.2-30.7-.8-46-.5-.4 0-.1 1-.5 1-7.8.2-21.8 1-23.8-2 0-.2 0-.3 0-.5-.6-3.5 0-8.7 1-12 .4-1.5 3.9-8.1 5.2-8.5 30.8.2 30.8.2 61.5.5 1.3.4 4.4 7.9 4.8 9.5z" fill="#66584e"/><path d="m267 258c-.2.4-1.5 1.9-1.8 2-34.5 0-34.5 0-69 0-.8-.6-1-1.5-1.2-2.5 2 3 16 2.2 23.8 2 .4 0 .1-1 .5-1 15.3-.3 30.7.3 46 .5 3.2-3.7 1.9-8.1 2.2-12.5.8 3.4 1.4 8.2-.5 11.5z" fill="#6a3f42"/><path d="m313 279.5c.1 3.7-.1 7.3 0 11 .2 7-1.7 12.2 3.5 12-.3 1.2 1 1.7-.2 2.5-13.4 0-13.4 0-26.8 0-1.2-2.2-1.2-2.2-2.5-4.5-.8-10.2-.8-10.2-1.5-20.5 9.1-.2 18.3-1 27.5-.5z" fill="#1b1c25"/><path d="m240.5 158c.1 2.6 1.2 3.1-.8 5.5-11.5-2.4-22.8 3.5-19.2-5 6.7-.3 13.2-.7 20-.5z" fill="#dcb18f"/><path d="m185.5 240.5c-.3.3-2.9 2.6-3.5 3-.2-1.5-.2-1.5-.5-3 5.3-4.4 5.7-13.5.2-18-9.3-7.6-17.9.9-20.2 2-.1 0-1.7.4-2 0 19.2-18.5 35.6 3 26 16z" fill="#ed6b4d"/><path d="m181.5 240.5c-10.8 8.9-31.4-3.1-20-16 2.4-1.1 11-9.6 20.2-2 5.5 4.4 5.1 13.6-.2 18z" fill="#edf3f7"/><path d="m315.5 227.5c-.1.8.5 1 .5 2-1.2 0-.6 9.8-.5 16-10.5.3-27 4.6-34.5-5.2-10.6-14 7.8-29.9 21.8-20.2 5.8 4 2.2 8 12.7 7.4z" fill="#d8413d"/><path d="m291.7 219c4.6-.3 12.1 3.6 14.2 7.8 5.7 10.9-8.8 21.9-20.2 14.8-11.1-7.1-4.4-21.9 6-22.6z" fill="#f4e8e2"/><path d="m281.5 162c11.4 3.7 15.7 10.9 20.5 21-3.6-2.3-3.5-10.8-8.5-9.5-2.1-2.5-5.2-4.9-8.2-6-7.8-2.9-43-4.6-45-3.5-.6.3-.9 4.1-.8 5-.1 0-.4 1-.8 1-5.3 0-10.7-.1-16 0-.2 0-.7-1-1.2-1-.2-1 .4-4.6-.2-5-1.4-1-27.7 1.2-31.2 2-7-3.4 2.4-2.8 2.5-5.5 9-1.8 18.9-1.7 28-2-3.6 8.5 7.7 2.6 19.2 5 2-2.4.9-2.9.8-5.5 10.4.1 31.3.9 40.9 4z" fill="#d7caa1"/><path d="m223.7 163.5c3 .3 13.5-.4 14.5 0 1.1.5.9 5 .8 5.2-.5.9-21 3.5-15.3-5.2z" fill="#da6670"/><path d="m293.5 173.5c5.5 6.6 11.4 25.5 12.5 34.5-.4 1.1.9 3.7-2.2 5-3 1.2-25.8.9-31.2 1 .6-2 7.3-2.3 7-4.5 6.9-.3 13.9.4 20.8-1 1.4-1.7-1.3-6.7-1.8-8.5-1-3.6-1.6-5.5-3-9-1.2-3.1-2.3-6-4-9-7-12.2-14.3-11.4-27.8-12.5-6.1-.5-17.5-.4-24.3-.5-.1-.9.1-4.7.8-5 2-1.1 37.2.6 45 3.5 3 1.1 6.1 3.5 8.2 6z" fill="#1d2834"/><path d="m221.5 169c-8.4.2-27.1.1-34.2 3-6.8 2.7-8.1 9.7-10.8 15.5-1.2 2.6-2.5 5.3-3.5 8-.7 2-1.4 3.9-2 6-.3 1.2-2.9 7.2-1.8 8 4.7.1 9.5-.1 14.2 0-.5 2.7 3.5 2.9 4 4.5-3.5-.1-23.2.1-24.5-1.5 4.5-16.9 6.8-42 27-46.5 3.6-.8 29.8-3 31.2-2 .7.4.2 4 .4 5z" fill="#1d2834"/><path d="m189 209.5c26.3.7 52.7 1 79 .5 3.8-.1 7.7-.4 11.5-.5.3 2.2-6.4 2.5-7 4.5-28.2.4-56.8.6-85 0-.5-1.6-4.5-1.8-4-4.5 1.8 0 3.6-.1 5.5 0z" fill="#072b39"/><path d="m239.5 169c6.8.1 18.2 0 24.3.5 13.4 1.1 20.7.3 27.8 12.5 1.4 19.5-18.8 7.4-34.2 5.5-10.1-1.2-53.8-2.6-61 2-1.5 1-1.6 2.8-1.8 3 0 0-.2-.2-.5.5-8.8-2.8-8.8-2.8-17.5-5.5 2.6-5.8 4-12.8 10.8-15.5 7.2-2.9 25.9-2.8 34.2-3 .6 0 1 1 1.2 1 5.3-.1 10.7 0 16 0 .3 0 .6-1 .7-1z" fill="#038f9d"/><path d="m295.5 191c1.4 3.5 2 5.4 3 9-5.1 2-10.7 2.6-16 4-.4-.2-1.2-1.5-1.2-1.5-3.4-1.1-36.7-.4-44.3-.5.1-1 .3-5.1-.8-5.5-14.8 5.9-17 5.3.8 5.5-.1.8.2 1.6-.2 2-.8-.5-.7-1.4-1-1.5-2-.4-34.4 0-40 0-.6 0-3.5 1.5-3.8 1.5-7 0-14.2-.5-21-2.5.6-2.1 1.3-4 2-6 6.8-.3 13.3 1 19.8 3 .8-.9 1.1-5.2 1.2-5.5.3-.7.5-.5.5-.5l11.2-3c14.4-2.7 72.7 7.2 78 6.5 1.4-.2 9.8-3.6 11.8-5z" fill="#59c5d6"/><path d="m295.5 191c-2 1.4-10.4 4.8-11.8 5-5.3.7-63.6-9.2-78-6.5-5.6 1.5-5.6 1.5-11.2 3 .1-.2.2-2 1.8-3 7.2-4.6 50.9-3.2 61-2 15.5 1.9 35.7 14 34.2-5.5 1.7 2.9 2.7 5.8 4 9z" fill="#59c5d6"/><path d="m279.5 209.5c-3.8.1-7.7.4-11.5.5-.9-3 9.2-4.6 14.5-6s10.9-2 16-4c.5 1.8 3.2 6.8 1.8 8.5-7 1.3-13.9.7-20.8 1z" fill="#16afc7"/><path d="m192 204c-1.5 2.8-1.5 2.8-3 5.5-1.8 0-3.7.1-5.5 0-4.7-.1-9.5.1-14.2 0-1.2-.8 1.4-6.8 1.8-8 6.6 1.9 13.8 2.4 20.9 2.5z" fill="#1d9eb6"/><path d="m194 193c-.1.3-.4 4.6-1.2 5.5-6.4-2-13-3.3-19.8-3 1-2.7 2.3-5.4 3.5-8 8.7 2.7 8.7 2.7 17.5 5.5z" fill="#59c5d6"/><path d="m282.5 204c-5.3 1.4-15.4 3-14.5 6-26.3.5-52.7.2-79-.5 1.5-2.8 1.5-2.8 3-5.5.2 0 3.2-1.5 3.8-1.5 5.6 0 38-.4 40 0 .3.1.2 1 1 1.5.5-.4.2-1.2.2-2 7.6.1 40.8-.6 44.3.5 0 0 .7 1.3 1.2 1.5z" fill="#59c5d6"/><path d="m237 202c-17.8-.2-15.6.4-.8-5.5 1.1.4.9 4.4.8 5.5z" fill="#b85130"/><path d="m285.5 280c.8 10.2.8 10.2 1.5 20.5-3.7 1-26.5-1.1-27.8-.5-1.7.8.7.7.8 3.5-3.2-1-.8-8.2-4.3-6.5-1.3.6-.6 6.5-.8 8 0 0-.2.2-.5-.5-2.2-4.9 5.7-4.1-16.8-4.5-.2-.1-.2-.9-.8-2-1-2-1.5-14.5-1-16.5.1-.3-.2-.8.8-1.5 16.4-.2 32.6.2 48.9 0z" fill="#027a8e"/><path d="m287 300.5c1.2 2.2 1.2 2.2 2.5 4.5v2.5c-9.9-.8-20.7 1.3-30.5-.5 1.1-1.3 1-1.9 1-3.5-.1-2.8-2.5-2.7-.8-3.5 1.3-.6 24 1.4 27.8.5z" fill="#50919e"/><path d="m254.5 304.5c.3.7.5.5.5.5.8 1.4 1.5 1.6 3 2-6.1 1.1-13.4.4-20 .5 0-.2-.8-1.7-1-4.5 8.7.7 8.7.7 17.5 1.5z" fill="#60a0af"/><path d="m254.5 304.5c-8.8-.8-8.8-.8-17.5-1.5-.1-1.6.1-3.3 0-5 .6 1.1.5 1.9.8 2 22.4.3 14.5-.5 16.7 4.5z" fill="#448291"/><path d="m260 303.5c0 1.6.1 2.2-1 3.5-.3-.1-.7.1-1 0-1.5-.4-2.2-.6-3-2 .2-1.5-.5-7.4.8-8 3.3-1.8.9 5.5 4.2 6.5z" fill="#ce9d31"/><path d="m259 307c9.8 1.8 20.6-.3 30.5.5 10.8 39.7 16.3 88.3 49.5 116-6.6-2.1-44.3-5.6-56.5-9.5-12-9.5-29.8-29.6-35.5-43.2-6.6-15.6-7.5-45.7-9-63.2 6.6-.1 13.9.6 20-.5.2-.1.6-.2 1-.1z" fill="#82bccc"/><path d="m294.2 388.5c21.7 19.9.2 7.5-.2 6.2-.2-.6-.1-6 .2-6.2z" fill="#eec563"/><path d="m289.2 375c4.6-.3 5.5 7.3 1 8-5.4.8-5.5-7.7-1-8z" fill="#cb2127"/><path d="m272.2 347.5c5-.4 5.6 7.8.5 8-4.5.2-5.1-7.7-.5-8z" fill="#cb2127"/><path d="m264.2 324c14.6-.6 9.4 23-4 15-6.8-4.1-3.8-14.7 4-15z" fill="#edf3f7"/><path d="m263.2 325.5c10.8-1.5 10.9 15.6-.5 12.5-6.6-1.8-5.8-11.7.5-12.5z" fill="#d8413d"/><path d="m263.2 327c4.4-1.5 5.9 3.2 2.5 5-4.5 2.3-5.8-4-2.5-5z" fill="#e6c4c5"/></svg>