<svg enable-background="new 0 0 175.5 168.5" viewBox="0 0 175.5 168.5" xmlns="http://www.w3.org/2000/svg" xmlns:xlink="http://www.w3.org/1999/xlink"><linearGradient id="a" gradientUnits="userSpaceOnUse" x1="72.5265" x2="119.8168" y1="55.9461" y2="124.7638"><stop offset="0" stop-color="#f9a459"/><stop offset="1" stop-color="#f48551"/></linearGradient><path d="m17.7 70.4c1.3 1.6 21 1.4 24.5 1.5 28.2.6 56.8.4 85 0 5.4-.1 28.2.2 31.3-1 3.2-1.3 1.8-3.9 2.2-5 4.2-10.4 2.8.6 6 2.5 0 0-.4.3 1 .5.3 2.2 1.2 4.3 1.5 6.5.3 1.6-.1 6.9 1.5 8.5-.2.8-.2.8-.5 1.5-10.4.6-6.8-3.4-12.8-7.5-14-9.7-32.4 6.3-21.8 20.2 7.5 9.8 24 5.5 34.5 5.2 0 2.6.1 4.9 0 7.5-.9-1.9-11.8 1.3-16.8 2-10.5 1.5-21.2 2.4-31.8 3 2-3.2 1.4-8 .5-11.5-.4-1.5-3.5-9.1-4.8-9.5-30.8-.2-30.8-.2-61.5-.5-1.4.4-4.8 7-5.2 8.5-5.2-2.2-5.2-2.2-10.5-4.5 9.7-13-6.7-34.5-26-16-.6.6-1.6 2.9-1.8 3-.3.2-4.3 0-6.2 1-2.1-2.1 2.9-11.8 4.5-17.5 4.1-.6 3.2-4.1 6-11.5 2-5.3 3.7-10.8 6-16 .6 1.4 1.5 1.7 1.5 2.2.1 1.5-8.5 20.8-6.3 26.9z" fill="url(#a)"/><path d="m49.7 114.9v.5c.2 1 .4 1.9 1.2 2.5h69c.3-.1 1.5-1.6 1.8-2 10.6-.6 21.3-1.5 31.8-3 4.9-.7 15.9-3.9 16.8-2-.1 4.3.3 8.7 0 13-54.8 6.5-110.8 8.1-165.5-.5-.1-4.5.1-9 0-13.5 14.8 2.2 29.8 5.4 44.9 5z" fill="#d8413d"/><path d="m170.2 123.9c-.2 2.5-.9 5.1-.5 7.8-1 2.9-1 2.9-2 5.8-9.2-.4-18.4.4-27.5.5-16.2.2-32.5-.2-48.8 0-1 .7-.7 1.2-.8 1.5-.8-.2-2.4-1.4-3.2-1.5-3.3-.3-23.4.6-30.8.5-7.7-.1-15.3-.5-23-.5-9.2 0-18.3-.1-27.5 0-.1-1.7.1-3.3 0-5-.1-1.6-1.5-2.5-1.5-3 0-3.2 0-3.2 0-6.5 54.8 8.5 110.8 6.8 165.6.4z" fill="#6a3f42"/><path d="m65.7 6.9c6.1-.3 49.2-.4 51.8 0 7.6 1.1 13.6 7.9 18.8 13-9.5-3.1-30.5-3.8-41-4-6.7-.1-13.3.3-20 .5-9.1.3-19 .2-28 2-2.9.6-8 2.1-10.5 3.5 10.1-13.5 13.9-14.4 28.9-15z" fill="#4d4d4e"/><path d="m33.7 137.9c-1.1 7.6.2 15.6-2 23-1.4 1.5-15.8 1.2-19 1-2.8-.2-5.6.6-6.5-.8.5-4.1-.4-8.2-.5-12.2 0-.1.6 0 .5-2.5-.1-2.8.1-5.7 0-8.5 9.2-.1 18.3-.1 27.5 0z" fill="#1b1c25"/><path d="m50.7 102.9c-1 3.3-1.6 8.5-1 12-15.1.4-30.1-2.7-45-5 0-2.1 0-3.9 0-6 10.6-2 22.5 3.9 32-2.5.6-.4 3.2-2.7 3.5-3 5.3 2.2 5.3 2.2 10.5 4.5z" fill="#f48452"/><path d="m16.2 82.4c-11.4 12.9 9.2 24.9 20 16 .2 1.5.2 1.5.5 3-9.5 6.4-21.4.5-32 2.5 0-3.4-.7-7-.5-10.5.1-1.6-.5-2.8-.5-3 0-.3 1.1-3.3 2.5-4 1.9-1 5.9-.8 6.2-1 .2-.1 1.1-2.4 1.8-3 .3.4 1.9 0 2 0z" fill="#d8413d"/><path d="m44.7 23.9c-20.2 4.5-22.5 29.6-27 46.5-2.2-6.1 6.4-25.3 6.5-26.7 0-.6-.9-.9-1.5-2.2 1.2-2.7 5.3-11.4 6.5-13 .6-.7 6.7-6 7.5-6.5 2.5-1.4 7.6-2.9 10.5-3.5-.1 2.6-9.5 2-2.5 5.4z" fill="#f3d990"/><path d="m156.7 40.9c2.5 5.2 4.1 10.6 6 16 .3.9 1.2 2.2 1.5 3 .9 2.7 1.2 5.8 2.5 8.5-3.2-1.9-1.8-12.9-6-2.5-1.1-9-7-27.9-12.5-34.5 5-1.3 4.9 7.2 8.5 9.5z" fill="#f3d990"/><path d="m122.2 104.4c-.3 4.4 1 8.8-2.2 12.5-15.3-.2-30.7-.8-46-.5-.4 0-.1 1-.5 1-7.8.2-21.8 1-23.8-2 0-.2 0-.3 0-.5-.6-3.5 0-8.7 1-12 .4-1.5 3.9-8.1 5.2-8.5 30.8.2 30.8.2 61.5.5 1.3.4 4.4 7.9 4.8 9.5z" fill="#66584e"/><path d="m121.7 115.9c-.2.4-1.5 1.9-1.8 2-34.5 0-34.5 0-69 0-.8-.6-1-1.5-1.2-2.5 2 3 16 2.2 23.8 2 .4 0 .1-1 .5-1 15.3-.3 30.7.3 46 .5 3.2-3.7 1.9-8.1 2.2-12.5.9 3.4 1.5 8.2-.5 11.5z" fill="#6a3f42"/><path d="m167.7 137.4c.1 3.7-.1 7.3 0 11 .2 7 1.9 12 1.9 11.8 0 1.3.7 1.9-.5 2.7-13.4 0-11.5 0-24.8 0-1.2-2.2-1.2-2.2-2.5-4.5-.8-10.2-.8-10.2-1.5-20.5 9-.2 18.2-1 27.4-.5z" fill="#1b1c25"/><path d="m95.2 15.9c.1 2.6 1.2 3.1-.8 5.5-11.5-2.4-22.8 3.5-19.2-5 6.7-.3 13.3-.7 20-.5z" fill="#dcb18f"/><path d="m40.2 98.4c-.3.3-2.9 2.6-3.5 3-.2-1.5-.2-1.5-.5-3 5.3-4.4 5.7-13.5.2-18-9.3-7.6-17.9.9-20.2 2-.1 0-1.7.4-2 0 19.3-18.5 35.7 3 26 16z" fill="#ed6b4d"/><path d="m36.2 98.4c-10.8 8.9-31.4-3.1-20-16 2.4-1.1 11-9.6 20.2-2 5.5 4.4 5.1 13.6-.2 18z" fill="#edf3f7"/><path d="m170.2 85.4c-.1.8.5 1 .5 2-1.2 0-.6 9.8-.5 16-10.5.3-27 4.6-34.5-5.2-10.6-14 7.8-29.9 21.8-20.2 5.9 4 2.3 8 12.7 7.4z" fill="#d8413d"/><path d="m146.5 76.9c4.6-.3 12.1 3.6 14.2 7.8 5.7 10.9-8.8 21.9-20.2 14.8-11.2-7.1-4.5-21.9 6-22.6z" fill="#f4e8e2"/><path d="m136.2 19.9c11.4 3.7 15.7 10.9 20.5 21-3.6-2.3-3.5-10.8-8.5-9.5-2.1-2.5-5.2-4.9-8.2-6-7.8-2.9-43-4.6-45-3.5-.6.3-.9 4.1-.8 5-.1 0-.4 1-.8 1-5.3 0-10.7-.1-16 0-.2 0-.7-1-1.2-1-.2-1 .4-4.6-.2-5-1.4-1-27.7 1.2-31.2 2-7-3.4 2.4-2.8 2.5-5.5 9-1.8 18.9-1.7 28-2-3.6 8.5 7.7 2.6 19.2 5 2-2.4.9-2.9.8-5.5 10.4.1 31.4.9 40.9 4z" fill="#d7caa1"/><path d="m78.5 21.4c3 .3 13.5-.4 14.5 0 1.1.5.9 5 .8 5.2-.6.9-21.1 3.5-15.3-5.2z" fill="#da6670"/><path d="m148.2 31.4c5.5 6.6 11.4 25.5 12.5 34.5-.4 1.1.9 3.7-2.2 5-3 1.2-25.8.9-31.3 1 .6-2 7.3-2.3 7-4.5 6.9-.3 13.9.4 20.8-1 1.4-1.7-1.3-6.7-1.8-8.5-1-3.6-1.6-5.5-3-9-1.2-3.1-2.3-6-4-9-7-12.2-14.3-11.4-27.8-12.5-6.1-.5-17.5-.4-24.2-.5-.1-.9.1-4.7.8-5 2-1.1 37.2.6 45 3.5 3 1.1 6.1 3.5 8.2 6z" fill="#1d2834"/><path d="m76.2 26.9c-8.4.1-27.1.1-34.2 3-6.8 2.7-8.1 9.7-10.7 15.5-1.2 2.6-2.5 5.3-3.5 8-.7 2-1.4 3.9-2 6-.3 1.2-2.9 7.2-1.8 8 4.7.1 9.5-.1 14.2 0-.5 2.7 3.5 2.9 4 4.5-3.5-.1-23.2.1-24.5-1.5 4.5-16.9 6.8-42 27-46.5 3.6-.8 29.8-3 31.2-2 .7.4.1 4 .3 5z" fill="#1d2834"/><path d="m43.7 67.4c26.3.7 52.7 1 79 .5 3.8-.1 7.7-.4 11.5-.5.3 2.2-6.4 2.5-7 4.5-28.2.4-56.8.6-85 0-.5-1.6-4.5-1.8-4-4.5 1.8 0 3.7-.1 5.5 0z" fill="#072b39"/><path d="m94.2 26.9c6.8.1 18.2 0 24.2.5 13.4 1.1 20.7.3 27.8 12.5 1.4 19.5-18.8 7.4-34.3 5.5-10.1-1.2-53.8-2.6-61 2-1.5 1-1.6 2.8-1.8 3 0 0-.2-.2-.5.5-8.8-2.8-8.8-2.8-17.5-5.5 2.6-5.8 4-12.8 10.7-15.5 7.2-2.9 25.9-2.8 34.2-3 .6 0 1 1 1.2 1 5.3-.1 10.7 0 16 0 .6 0 .9-1 1-1z" fill="#038f9d"/><path d="m150.2 48.9c1.4 3.5 2 5.4 3 9-5.1 2-10.7 2.6-16 4-.4-.2-1.2-1.5-1.2-1.5-3.4-1.1-36.7-.4-44.3-.5.1-1 .3-5.1-.8-5.5-14.8 5.9-17 5.3.8 5.5-.1.8.2 1.6-.2 2-.8-.5-.7-1.4-1-1.5-2-.4-34.4 0-40 0-.6 0-3.5 1.5-3.8 1.5-7 0-14.2-.5-21-2.5.6-2.1 1.3-4 2-6 6.8-.3 13.3 1 19.7 3 .8-.9 1.1-5.2 1.2-5.5.3-.7.5-.5.5-.5l11.2-3c14.4-2.7 72.7 7.2 78 6.5 1.5-.2 9.9-3.6 11.9-5z" fill="#59c5d6"/><path d="m150.2 48.9c-2 1.4-10.4 4.8-11.8 5-5.3.7-63.6-9.2-78-6.5-5.6 1.5-5.6 1.5-11.2 3 .1-.2.2-2 1.8-3 7.2-4.6 50.9-3.2 61-2 15.5 1.9 35.7 14 34.3-5.5 1.6 2.9 2.7 5.8 3.9 9z" fill="#59c5d6"/><path d="m134.2 67.4c-3.8.1-7.7.4-11.5.5-.9-3 9.2-4.6 14.5-6s10.9-2 16-4c.5 1.8 3.2 6.8 1.8 8.5-6.9 1.3-13.9.7-20.8 1z" fill="#16afc7"/><path d="m46.7 61.9c-1.5 2.7-1.5 2.7-3 5.5-1.8 0-3.7.1-5.5 0-4.7-.1-9.5.1-14.2 0-1.2-.8 1.4-6.8 1.8-8 6.7 1.9 13.9 2.4 20.9 2.5z" fill="#1d9eb6"/><path d="m48.7 50.9c-.1.3-.4 4.6-1.2 5.5-6.4-2-13-3.3-19.7-3 1-2.7 2.3-5.4 3.5-8 8.7 2.7 8.7 2.7 17.4 5.5z" fill="#59c5d6"/><path d="m137.2 61.9c-5.3 1.4-15.4 3-14.5 6-26.3.5-52.7.2-79-.5 1.5-2.8 1.5-2.8 3-5.5.2 0 3.2-1.5 3.8-1.5 5.6 0 38-.4 40 0 .3.1.2 1 1 1.5.5-.4.2-1.2.2-2 7.6.1 40.8-.6 44.3.5 0-0 .8 1.3 1.2 1.5z" fill="#59c5d6"/><path d="m91.7 59.9c-17.8-.2-15.6.4-.8-5.5 1.1.4.9 4.4.8 5.5z" fill="#b85130"/></svg>