<?xml version="1.0" encoding="utf-8"?>
<!-- Generator: Adobe Illustrator 28.0.0, SVG Export Plug-In . SVG Version: 6.00 Build 0)  -->
<svg version="1.1" id="Layer_1" xmlns="http://www.w3.org/2000/svg" xmlns:xlink="http://www.w3.org/1999/xlink" x="0px" y="0px"
	 viewBox="0 0 175.5 168.5" style="enable-background:new 0 0 175.5 168.5;" xml:space="preserve">
<style type="text/css">
	.st0{fill:url(#SVGID_1_);}
	.st1{fill:#D8413D;}
	.st2{fill:#6A3F42;}
	.st3{fill:#4D4D4E;}
	.st4{fill:#1B1C25;}
	.st5{fill:#F48452;}
	.st6{fill:#F3D990;}
	.st7{fill:#66584E;}
	.st8{fill:#DCB18F;}
	.st9{fill:#ED6B4D;}
	.st10{fill:#EDF3F7;}
	.st11{fill:#F4E8E2;}
	.st12{fill:#D7CAA1;}
	.st13{fill:#DA6670;}
	.st14{fill:#1D2834;}
	.st15{fill:#072B39;}
	.st16{fill:#038F9D;}
	.st17{fill:#59C5D6;}
	.st18{fill:#16AFC7;}
	.st19{fill:#1D9EB6;}
	.st20{fill:#B85130;}
</style>
<g>
	<linearGradient id="SVGID_1_" gradientUnits="userSpaceOnUse" x1="72.5265" y1="55.9461" x2="119.8168" y2="124.7638">
		<stop  offset="0" style="stop-color:#F9A459"/>
		<stop  offset="1" style="stop-color:#F48551"/>
	</linearGradient>
	<path class="st0" d="M17.7,70.4c1.3,1.6,21,1.4,24.5,1.5c28.2,0.6,56.8,0.4,85,0c5.4-0.1,28.2,0.2,31.3-1c3.2-1.3,1.8-3.9,2.2-5
		c4.2-10.4,2.8,0.6,6,2.5c0,0-0.4,0.3,1,0.5c0.3,2.2,1.2,4.3,1.5,6.5c0.3,1.6-0.1,6.9,1.5,8.5c-0.2,0.8-0.2,0.8-0.5,1.5
		c-10.4,0.6-6.8-3.4-12.8-7.5c-14-9.7-32.4,6.3-21.8,20.2c7.5,9.8,24,5.5,34.5,5.2c0,2.6,0.1,4.9,0,7.5c-0.9-1.9-11.8,1.3-16.8,2
		c-10.5,1.5-21.2,2.4-31.8,3c2-3.2,1.4-8,0.5-11.5c-0.4-1.5-3.5-9.1-4.8-9.5c-30.8-0.2-30.8-0.2-61.5-0.5c-1.4,0.4-4.8,7-5.2,8.5
		c-5.2-2.2-5.2-2.2-10.5-4.5c9.7-13-6.7-34.5-26-16c-0.6,0.6-1.6,2.9-1.8,3c-0.3,0.2-4.3,0-6.2,1c-2.1-2.1,2.9-11.8,4.5-17.5
		c4.1-0.6,3.2-4.1,6-11.5c2-5.3,3.7-10.8,6-16c0.6,1.4,1.5,1.7,1.5,2.2C24.1,45,15.5,64.3,17.7,70.4z"/>
	<g>
		<path class="st1" d="M49.7,114.9c0,0.2,0,0.3,0,0.5c0.2,1,0.4,1.9,1.2,2.5c34.5,0,34.5,0,69,0c0.3-0.1,1.5-1.6,1.8-2
			c10.6-0.6,21.3-1.5,31.8-3c4.9-0.7,15.9-3.9,16.8-2c-0.1,4.3,0.3,8.7,0,13c-54.8,6.5-110.8,8.1-165.5-0.5c-0.1-4.5,0.1-9,0-13.5
			C19.6,112.1,34.6,115.3,49.7,114.9z"/>
		<path class="st2" d="M170.2,123.9c-0.2,2.5-0.9,5.1-0.5,7.8c-1,2.9-1,2.9-2,5.8c-9.2-0.4-18.4,0.4-27.5,0.5
			c-16.2,0.2-32.5-0.2-48.8,0c-1,0.7-0.7,1.2-0.8,1.5c-0.8-0.2-2.4-1.4-3.2-1.5c-3.3-0.3-23.4,0.6-30.8,0.5
			c-7.7-0.1-15.3-0.5-23-0.5c-9.2,0-18.3-0.1-27.5,0c-0.1-1.7,0.1-3.3,0-5c-0.1-1.6-1.5-2.5-1.5-3c0-3.2,0-3.2,0-6.5
			C59.4,132,115.4,130.3,170.2,123.9z"/>
	</g>
	<path class="st3" d="M65.7,6.9c6.1-0.3,49.2-0.4,51.8,0c7.6,1.1,13.6,7.9,18.8,13c-9.5-3.1-30.5-3.8-41-4c-6.7-0.1-13.3,0.3-20,0.5
		c-9.1,0.3-19,0.2-28,2c-2.9,0.6-8,2.1-10.5,3.5C46.9,8.4,50.7,7.5,65.7,6.9z"/>
	<path class="st4" d="M33.7,137.9c-1.1,7.6,0.2,15.6-2,23c-1.4,1.5-15.8,1.2-19,1c-2.8-0.2-5.6,0.6-6.5-0.8
		c0.5-4.1-0.4-8.2-0.5-12.2c0-0.1,0.6,0,0.5-2.5c-0.1-2.8,0.1-5.7,0-8.5C15.4,137.8,24.5,137.8,33.7,137.9z"/>
	<path class="st5" d="M50.7,102.9c-1,3.3-1.6,8.5-1,12c-15.1,0.4-30.1-2.7-45-5c0-2.1,0-3.9,0-6c10.6-2,22.5,3.9,32-2.5
		c0.6-0.4,3.2-2.7,3.5-3C45.5,100.6,45.5,100.6,50.7,102.9z"/>
	<path class="st1" d="M16.2,82.4c-11.4,12.9,9.2,24.9,20,16c0.2,1.5,0.2,1.5,0.5,3c-9.5,6.4-21.4,0.5-32,2.5c0-3.4-0.7-7-0.5-10.5
		c0.1-1.6-0.5-2.8-0.5-3c0-0.3,1.1-3.3,2.5-4c1.9-1,5.9-0.8,6.2-1c0.2-0.1,1.1-2.4,1.8-3C14.5,82.8,16.1,82.4,16.2,82.4z"/>
	<path class="st6" d="M44.7,23.9c-20.2,4.5-22.5,29.6-27,46.5c-2.2-6.1,6.4-25.3,6.5-26.7c0-0.6-0.9-0.9-1.5-2.2
		c1.2-2.7,5.3-11.4,6.5-13c0.6-0.7,6.7-6,7.5-6.5c2.5-1.4,7.6-2.9,10.5-3.5C47.1,21.1,37.7,20.5,44.7,23.9z"/>
	<path class="st6" d="M156.7,40.9c2.5,5.2,4.1,10.6,6,16c0.3,0.9,1.2,2.2,1.5,3c0.9,2.7,1.2,5.8,2.5,8.5c-3.2-1.9-1.8-12.9-6-2.5
		c-1.1-9-7-27.9-12.5-34.5C153.2,30.1,153.1,38.6,156.7,40.9z"/>
	<g>
		<path class="st7" d="M122.2,104.4c-0.3,4.4,1,8.8-2.2,12.5c-15.3-0.2-30.7-0.8-46-0.5c-0.4,0-0.1,1-0.5,1c-7.8,0.2-21.8,1-23.8-2
			c0-0.2,0-0.3,0-0.5c-0.6-3.5,0-8.7,1-12c0.4-1.5,3.9-8.1,5.2-8.5c30.8,0.2,30.8,0.2,61.5,0.5C118.7,95.3,121.8,102.8,122.2,104.4z
			"/>
		<path class="st2" d="M121.7,115.9c-0.2,0.4-1.5,1.9-1.8,2c-34.5,0-34.5,0-69,0c-0.8-0.6-1-1.5-1.2-2.5c2,3,16,2.2,23.8,2
			c0.4,0,0.1-1,0.5-1c15.3-0.3,30.7,0.3,46,0.5c3.2-3.7,1.9-8.1,2.2-12.5C123.1,107.8,123.7,112.6,121.7,115.9z"/>
	</g>
	<path class="st4" d="M167.7,137.4c0.1,3.7-0.1,7.3,0,11c0.2,7,1.9,12,1.9,11.8c0,1.3,0.7,1.9-0.5,2.7c-13.4,0-11.5,0-24.8,0
		c-1.2-2.2-1.2-2.2-2.5-4.5c-0.8-10.2-0.8-10.2-1.5-20.5C149.3,137.7,158.5,136.9,167.7,137.4z"/>
	<path class="st8" d="M95.2,15.9c0.1,2.6,1.2,3.1-0.8,5.5c-11.5-2.4-22.8,3.5-19.2-5C81.9,16.1,88.5,15.7,95.2,15.9z"/>
	<g>
		<path class="st9" d="M40.2,98.4c-0.3,0.3-2.9,2.6-3.5,3c-0.2-1.5-0.2-1.5-0.5-3c5.3-4.4,5.7-13.5,0.2-18c-9.3-7.6-17.9,0.9-20.2,2
			c-0.1,0-1.7,0.4-2,0C33.5,63.9,49.9,85.4,40.2,98.4z"/>
		<path class="st10" d="M36.2,98.4c-10.8,8.9-31.4-3.1-20-16c2.4-1.1,11-9.6,20.2-2C41.9,84.8,41.5,94,36.2,98.4z"/>
	</g>
	<g>
		<path class="st1" d="M170.2,85.4c-0.1,0.8,0.5,1,0.5,2c-1.2,0-0.6,9.8-0.5,16c-10.5,0.3-27,4.6-34.5-5.2
			c-10.6-14,7.8-29.9,21.8-20.2C163.4,82,159.8,86,170.2,85.4z"/>
		<path class="st11" d="M146.5,76.9c4.6-0.3,12.1,3.6,14.2,7.8c5.7,10.9-8.8,21.9-20.2,14.8C129.3,92.4,136,77.6,146.5,76.9z"/>
	</g>
	<g>
		<path class="st12" d="M136.2,19.9c11.4,3.7,15.7,10.9,20.5,21c-3.6-2.3-3.5-10.8-8.5-9.5c-2.1-2.5-5.2-4.9-8.2-6
			c-7.8-2.9-43-4.6-45-3.5c-0.6,0.3-0.9,4.1-0.8,5c-0.1,0-0.4,1-0.8,1c-5.3,0-10.7-0.1-16,0c-0.2,0-0.7-1-1.2-1
			c-0.2-1,0.4-4.6-0.2-5c-1.4-1-27.7,1.2-31.2,2c-7-3.4,2.4-2.8,2.5-5.5c9-1.8,18.9-1.7,28-2c-3.6,8.5,7.7,2.6,19.2,5
			c2-2.4,0.9-2.9,0.8-5.5C105.7,16,126.7,16.8,136.2,19.9z"/>
		<path class="st13" d="M78.5,21.4c3,0.3,13.5-0.4,14.5,0c1.1,0.5,0.9,5,0.8,5.2C93.2,27.5,72.7,30.1,78.5,21.4z"/>
	</g>
	<g>
		<path class="st14" d="M148.2,31.4c5.5,6.6,11.4,25.5,12.5,34.5c-0.4,1.1,0.9,3.7-2.2,5c-3,1.2-25.8,0.9-31.3,1
			c0.6-2,7.3-2.3,7-4.5c6.9-0.3,13.9,0.4,20.8-1c1.4-1.7-1.3-6.7-1.8-8.5c-1-3.6-1.6-5.5-3-9c-1.2-3.1-2.3-6-4-9
			c-7-12.2-14.3-11.4-27.8-12.5c-6.1-0.5-17.5-0.4-24.2-0.5c-0.1-0.9,0.1-4.7,0.8-5c2-1.1,37.2,0.6,45,3.5
			C143,26.5,146.1,28.9,148.2,31.4z"/>
		<path class="st14" d="M76.2,26.9C67.8,27,49.1,27,42,29.9c-6.8,2.7-8.1,9.7-10.7,15.5c-1.2,2.6-2.5,5.3-3.5,8c-0.7,2-1.4,3.9-2,6
			c-0.3,1.2-2.9,7.2-1.8,8c4.7,0.1,9.5-0.1,14.2,0c-0.5,2.7,3.5,2.9,4,4.5C38.7,71.8,19,72,17.7,70.4c4.5-16.9,6.8-42,27-46.5
			c3.6-0.8,29.8-3,31.2-2C76.6,22.3,76,25.9,76.2,26.9z"/>
		<path class="st15" d="M43.7,67.4c26.3,0.7,52.7,1,79,0.5c3.8-0.1,7.7-0.4,11.5-0.5c0.3,2.2-6.4,2.5-7,4.5c-28.2,0.4-56.8,0.6-85,0
			c-0.5-1.6-4.5-1.8-4-4.5C40,67.4,41.9,67.3,43.7,67.4z"/>
		<path class="st16" d="M94.2,26.9c6.8,0.1,18.2,0,24.2,0.5c13.4,1.1,20.7,0.3,27.8,12.5c1.4,19.5-18.8,7.4-34.3,5.5
			c-10.1-1.2-53.8-2.6-61,2c-1.5,1-1.6,2.8-1.8,3c0,0-0.2-0.2-0.5,0.5c-8.8-2.8-8.8-2.8-17.5-5.5c2.6-5.8,4-12.8,10.7-15.5
			c7.2-2.9,25.9-2.8,34.2-3c0.6,0,1,1,1.2,1c5.3-0.1,10.7,0,16,0C93.8,27.9,94.1,26.9,94.2,26.9z"/>
		<path class="st17" d="M150.2,48.9c1.4,3.5,2,5.4,3,9c-5.1,2-10.7,2.6-16,4c-0.4-0.2-1.2-1.5-1.2-1.5c-3.4-1.1-36.7-0.4-44.3-0.5
			c0.1-1,0.3-5.1-0.8-5.5c-14.8,5.9-17,5.3,0.8,5.5c-0.1,0.8,0.2,1.6-0.2,2c-0.8-0.5-0.7-1.4-1-1.5c-2-0.4-34.4,0-40,0
			c-0.6,0-3.5,1.5-3.8,1.5c-7,0-14.2-0.5-21-2.5c0.6-2.1,1.3-4,2-6c6.8-0.3,13.3,1,19.7,3c0.8-0.9,1.1-5.2,1.2-5.5
			c0.3-0.7,0.5-0.5,0.5-0.5c5.6-1.5,5.6-1.5,11.2-3c14.4-2.7,72.7,7.2,78,6.5C139.8,53.7,148.2,50.3,150.2,48.9z"/>
		<path class="st17" d="M150.2,48.9c-2,1.4-10.4,4.8-11.8,5c-5.3,0.7-63.6-9.2-78-6.5c-5.6,1.5-5.6,1.5-11.2,3c0.1-0.2,0.2-2,1.8-3
			c7.2-4.6,50.9-3.2,61-2c15.5,1.9,35.7,14,34.3-5.5C147.9,42.8,149,45.7,150.2,48.9z"/>
		<path class="st18" d="M134.2,67.4c-3.8,0.1-7.7,0.4-11.5,0.5c-0.9-3,9.2-4.6,14.5-6c5.3-1.4,10.9-2,16-4c0.5,1.8,3.2,6.8,1.8,8.5
			C148.1,67.7,141.1,67.1,134.2,67.4z"/>
		<path class="st19" d="M46.7,61.9c-1.5,2.7-1.5,2.7-3,5.5c-1.8,0-3.7,0.1-5.5,0c-4.7-0.1-9.5,0.1-14.2,0c-1.2-0.8,1.4-6.8,1.8-8
			C32.5,61.3,39.7,61.8,46.7,61.9z"/>
		<path class="st17" d="M48.7,50.9c-0.1,0.3-0.4,4.6-1.2,5.5c-6.4-2-13-3.3-19.7-3c1-2.7,2.3-5.4,3.5-8C40,48.1,40,48.1,48.7,50.9z"
			/>
		<path class="st17" d="M137.2,61.9c-5.3,1.4-15.4,3-14.5,6c-26.3,0.5-52.7,0.2-79-0.5c1.5-2.8,1.5-2.8,3-5.5c0.2,0,3.2-1.5,3.8-1.5
			c5.6,0,38-0.4,40,0c0.3,0.1,0.2,1,1,1.5c0.5-0.4,0.2-1.2,0.2-2c7.6,0.1,40.8-0.6,44.3,0.5C136,60.4,136.8,61.7,137.2,61.9z"/>
		<path class="st20" d="M91.7,59.9c-17.8-0.2-15.6,0.4-0.8-5.5C92,54.8,91.8,58.8,91.7,59.9z"/>
	</g>
</g>
</svg>
