<?xml version="1.0" encoding="utf-8"?>
<!-- Generator: Adobe Illustrator 28.0.0, SVG Export Plug-In . SVG Version: 6.00 Build 0)  -->
<svg version="1.1" id="Layer_1" xmlns="http://www.w3.org/2000/svg" xmlns:xlink="http://www.w3.org/1999/xlink" x="0px" y="0px"
	 viewBox="0 0 512 512" style="enable-background:new 0 0 512 512;" xml:space="preserve">
<style type="text/css">
	.st0{fill:url(#r4_00000031184303261067437700000015038806673848197284_);}
	.st1{fill:#1E160B;}
	.st2{fill:#F5AE27;}
	.st3{fill:#363F2E;}
	.st4{fill:url(#SVGID_1_);}
	.st5{fill:#DB7327;}
	.st6{fill:url(#SVGID_00000117669722287308178140000010092456198074891660_);}
	.st7{fill:#D8413C;}
	.st8{fill:#6A3F42;}
	.st9{fill:#4D4D4E;}
	.st10{fill:#1B1C25;}
	.st11{fill:#F48451;}
	.st12{fill:#F2D88F;}
	.st13{fill:#67584E;}
	.st14{fill:#DCB08F;}
	.st15{fill:#ED6B4D;}
	.st16{fill:#ECF3F7;}
	.st17{fill:#F4E8E1;}
	.st18{fill:#D6C9A0;}
	.st19{fill:#DA6671;}
	.st20{fill:#1D2834;}
	.st21{fill:#072B39;}
	.st22{fill:#008E9C;}
	.st23{fill:#59C4D5;}
	.st24{fill:#11AFC7;}
	.st25{fill:#1C9DB5;}
	.st26{fill:#B75130;}
</style>
<linearGradient id="r4_00000103236854268946675500000005069645452806623659_" gradientUnits="userSpaceOnUse" x1="33.636" y1="494.7954" x2="545.636" y2="494.7954" gradientTransform="matrix(0.7071 0.7071 0.7071 -0.7071 -373.6575 326.0889)">
	<stop  offset="0" style="stop-color:#F5AF19"/>
	<stop  offset="1" style="stop-color:#F12711"/>
</linearGradient>
<path id="r4" style="fill:url(#r4_00000103236854268946675500000005069645452806623659_);" d="M128,0h256c70.7,0,128,57.3,128,128
	v256c0,70.7-57.3,128-128,128H128C57.3,512,0,454.7,0,384V128C0,57.3,57.3,0,128,0z"/>
<g>
	<g>
		<g>
			<path class="st1" d="M380.8,556.9c-39.4,0.1-78.9,2.3-118.3,0c3,0,6,0,9,0c35.3,0,70.7,0.7,106-0.8
				C378.7,556.7,379.5,557.2,380.8,556.9z"/>
			<path class="st2" d="M336.5,527.4c9.4,8.7,30,23,41.1,28.8c-35.3,1.5-70.7,0.8-106,0.8c-5.9-9.4-14.6-16.9-21.4-25.5
				c-3.1-3.9-3.1-6.7-3.3-7c-0.2-0.3-3.5-1.8-5.8-4.9c-47.9-64.6-50.8-86.3-42.7-166.4c21.7,0.6,43.3-0.5,64.9-0.8
				c2.4,28.8,4,78.3,14.8,103.9C287.5,478.7,316.8,511.8,336.5,527.4z"/>
			<path class="st3" d="M267.9,464.9c10.1-0.1,10.5,3.7,3.3,4.9c-3,0.5-38.2,4.1-40.3,4.1c-2.4,0-11.3-1.3-6.6-4.1
				C226.2,468.7,265.7,464.9,267.9,464.9z"/>
			<path class="st3" d="M257.2,447.7c16.4,6.7-32.6,6.3-39.4,9C203.2,450,242.4,451.3,257.2,447.7z"/>
			<path class="st3" d="M254.7,423c3.4,0.6,3.3,3.8-1.6,4.9c-2,0.4-38.2,4.3-40.3,4.1c-5.5-0.5-4-3.9,0.8-4.9
				C215.7,426.7,252.7,422.6,254.7,423z"/>
		</g>
		<g>
			<linearGradient id="SVGID_1_" gradientUnits="userSpaceOnUse" x1="231.5994" y1="326.9675" x2="231.1149" y2="344.2157">
				<stop  offset="0" style="stop-color:#72401A"/>
				<stop  offset="1" style="stop-color:#9C5B25"/>
			</linearGradient>
			<path class="st4" d="M260.1,309.6c-0.9,3.3,0,23.9,1.6,27.1c0.1,2.7-0.2,5.5,0,8.2c0.3,4.7,1.6,7,1.6,7.4
				c-21.6,0.4-43.3,1.4-64.9,0.8c0-0.3,0-0.6,0-0.8c0.2-2.1,0.6-4.4,0.8-6.6c1.5-12.6,3.6-25.2,4.9-37.8c12.1,0.1,45.1-1.3,50.5-0.8
				C256.1,307.3,258.7,309.2,260.1,309.6z"/>
			<path class="st5" d="M212.8,319.5c16.2,0.6,16.2,0.6,32.5,1.2c-23.4,15.2-14.7,15.9-16.4,20.5c-3,8.1-3.1-9.2-3.3-9.9
				C225,329.8,213.8,322.6,212.8,319.5z"/>
		</g>
	</g>
	<g>
		
			<linearGradient id="SVGID_00000044859099617021939770000016181240125825168308_" gradientUnits="userSpaceOnUse" x1="230.19" y1="172.545" x2="307.9038" y2="285.6357">
			<stop  offset="0" style="stop-color:#F8A359"/>
			<stop  offset="1" style="stop-color:#F48451"/>
		</linearGradient>
		<path style="fill:url(#SVGID_00000044859099617021939770000016181240125825168308_);" d="M140.1,196.2c2.1,2.6,34.5,2.4,40.3,2.5
			c46.4,0.9,93.3,0.7,139.7,0c8.9-0.1,46.4,0.4,51.4-1.6c5.2-2.1,3-6.4,3.7-8.2c7-17.1,4.6,1,9.9,4.1c0.1,0-0.6,0.6,1.6,0.8
			c0.5,3.6,1.9,7.1,2.5,10.7c0.4,2.7-0.2,11.3,2.5,14c-0.4,1.2-0.4,1.2-0.8,2.5c-17.1,1-11.2-5.6-21-12.3
			c-23-15.9-53.2,10.3-35.7,33.3c12.3,16.1,39.4,9.1,56.7,8.6c0,4.3,0.1,8,0,12.3c-1.5-3.1-19.5,2.1-27.5,3.3
			c-17.2,2.4-34.8,3.9-52.2,4.9c3.3-5.3,2.2-13.2,0.8-18.9c-0.6-2.5-5.7-14.9-7.8-15.6c-50.5-0.4-50.5-0.4-101.1-0.8
			c-2.2,0.7-7.9,11.4-8.6,14c-8.6-3.7-8.6-3.7-17.3-7.4c15.9-21.3-11.1-56.7-42.7-26.3c-1,1-2.6,4.8-2.9,4.9
			c-0.5,0.3-7.1,0-10.3,1.6c-3.4-3.4,4.8-19.5,7.4-28.8c6.7-1,5.3-6.7,9.9-18.9c3.3-8.7,6.1-17.8,9.9-26.3c1,2.2,2.5,2.8,2.5,3.7
			C150.7,154.6,136.4,186.3,140.1,196.2z"/>
		<g>
			<path class="st7" d="M192.7,269.4c0,0.3-0.1,0.6,0,0.8c0.4,1.6,0.7,3,2.1,4.1c56.7,0,56.7,0,113.4,0c0.4-0.1,2.5-2.7,2.9-3.3
				c17.4-1,35-2.5,52.2-4.9c8.1-1.1,26.1-6.4,27.5-3.3c-0.1,7.1,0.4,14.3,0,21.4c-90,10.6-182.1,13.4-272-0.8
				c-0.2-7.4,0.2-14.8,0-22.2C143.2,264.9,167.8,270.1,192.7,269.4z"/>
			<path class="st8" d="M390.7,284.2c-0.3,4.1-1.5,8.4-0.8,12.7c-1.6,4.7-1.6,4.7-3.3,9.4c-15.1-0.7-30.2,0.6-45.2,0.8
				c-26.7,0.4-53.4-0.3-80.1,0c-1.6,1.1-1.1,1.9-1.2,2.5c-1.4-0.4-4-2.4-5.3-2.5c-5.4-0.4-38.4,0.9-50.5,0.8
				c-12.6-0.1-25.2-0.8-37.8-0.8c-15.1-0.1-30.1-0.2-45.2,0c-0.1-2.7,0.1-5.5,0-8.2c-0.1-2.6-2.4-4.1-2.5-4.9c0-5.3,0-5.3,0-10.7
				C208.6,297.5,300.7,294.8,390.7,284.2z"/>
		</g>
		<path class="st9" d="M219,91.9c10.1-0.5,80.8-0.6,85,0c12.5,1.7,22.4,13,30.8,21.4c-15.6-5.1-50.1-6.3-67.4-6.6
			c-11-0.2-21.9,0.4-32.9,0.8c-14.9,0.5-31.3,0.3-46,3.3c-4.7,1-13.1,3.4-17.3,5.8C188.1,94.5,194.3,93,219,91.9z"/>
		<path class="st10" d="M166.4,307.2c-1.8,12.5,0.4,25.7-3.3,37.8c-2.2,2.5-26,1.9-31.2,1.6c-4.5-0.3-9.1,0.9-10.7-1.2
			c0.8-6.7-0.7-13.5-0.8-20.1c0-0.2,0.9,0.1,0.8-4.1c-0.1-4.6,0.1-9.3,0-14C136.3,307,151.3,307.1,166.4,307.2z"/>
		<path class="st11" d="M194.3,249.6c-1.6,5.5-2.6,14-1.6,19.7c-24.9,0.7-49.5-4.5-74-8.2c-0.1-3.4,0-6.5,0-9.9
			c17.4-3.3,37.1,6.4,52.6-4.1c1-0.7,5.3-4.4,5.8-4.9C185.7,245.9,185.7,245.9,194.3,249.6z"/>
		<path class="st7" d="M137.6,216c-18.7,21.2,15.1,41,32.9,26.3c0.4,2.5,0.4,2.5,0.8,4.9c-15.5,10.5-35.1,0.8-52.6,4.1
			c0-5.7-1.1-11.4-0.8-17.3c0.1-2.7-0.9-4.7-0.8-4.9c0.1-0.4,1.9-5.4,4.1-6.6c3.2-1.6,9.8-1.4,10.3-1.6c0.3-0.2,1.8-3.9,2.9-4.9
			C134.9,216.6,137.5,216,137.6,216z"/>
		<path class="st12" d="M184.5,119.8c-33.1,7.5-37,48.6-44.4,76.4c-3.7-10,10.6-41.6,10.7-44c0-0.9-1.5-1.5-2.5-3.7
			c2-4.5,8.7-18.8,10.7-21.4c0.9-1.2,11-9.9,12.3-10.7c4.1-2.3,12.6-4.8,17.3-5.8C188.4,115.3,172.9,114.3,184.5,119.8z"/>
		<path class="st12" d="M368.5,147.8c4,8.5,6.8,17.4,9.9,26.3c0.5,1.5,2,3.6,2.5,4.9c1.5,4.5,1.9,9.6,4.1,14
			c-5.3-3.1-2.9-21.2-9.9-4.1c-1.9-14.9-11.6-45.8-20.5-56.7C362.8,130.1,362.5,144,368.5,147.8z"/>
		<g>
			<path class="st13" d="M311.8,252.1c-0.5,7.2,1.6,14.5-3.7,20.5c-25.2-0.3-50.4-1.4-75.6-0.8c-0.6,0-0.2,1.6-0.8,1.6
				c-12.8,0.3-35.8,1.7-39-3.3c-0.1-0.3,0-0.6,0-0.8c-0.9-5.7,0-14.2,1.6-19.7c0.7-2.5,6.4-13.3,8.6-14c50.5,0.4,50.5,0.4,101.1,0.8
				C306.1,237.2,311.2,249.6,311.8,252.1z"/>
			<path class="st8" d="M311,271c-0.4,0.6-2.5,3.2-2.9,3.3c-56.7,0-56.7,0-113.4,0c-1.4-1.1-1.7-2.5-2.1-4.1c3.3,5,26.3,3.6,39,3.3
				c0.6,0,0.2-1.6,0.8-1.6c25.2-0.5,50.4,0.5,75.6,0.8c5.3-6,3.2-13.3,3.7-20.5C313.2,257.8,314.3,265.7,311,271z"/>
		</g>
		<path class="st10" d="M386.6,306.3c0.1,6-0.1,12.1,0,18.1c0.3,11.5-2.8,20,5.8,19.7c-0.6,2,1.7,2.9-0.4,4.1c-22,0-22,0-44,0
			c-2.1-3.7-2.1-3.7-4.1-7.4c-1.2-16.8-1.2-16.8-2.5-33.7C356.4,307,371.5,305.6,386.6,306.3z"/>
		<path class="st14" d="M267.5,106.7c0.2,4.3,2,5.1-1.2,9c-18.9-3.9-37.5,5.7-31.6-8.2C245.6,107.1,256.4,106.5,267.5,106.7z"/>
		<g>
			<path class="st15" d="M177.1,242.2c-0.4,0.6-4.7,4.2-5.8,4.9c-0.4-2.5-0.4-2.5-0.8-4.9c8.7-7.2,9.4-22.2,0.4-29.6
				c-15.3-12.5-29.3,1.4-33.3,3.3c-0.1,0.1-2.8,0.7-3.3,0C166,185.6,193,220.9,177.1,242.2z"/>
			<path class="st16" d="M170.5,242.2c-17.8,14.7-51.6-5.1-32.9-26.3c3.9-1.9,18-15.7,33.3-3.3C179.9,220,179.2,235,170.5,242.2z"/>
		</g>
		<g>
			<path class="st7" d="M390.7,220.9c-0.2,1.2,0.8,1.6,0.8,3.3c-2-0.1-0.9,16.1-0.8,26.3c-17.3,0.5-44.4,7.5-56.7-8.6
				c-17.5-23,12.8-49.2,35.7-33.3C379.5,215.3,373.6,221.9,390.7,220.9z"/>
			<path class="st17" d="M351.7,206.9c7.5-0.6,19.9,6,23.4,12.7c9.4,17.9-14.5,36-33.3,24.2C323.5,232.4,334.6,208.2,351.7,206.9z"
				/>
		</g>
		<g>
			<path class="st18" d="M334.8,113.2c18.7,6.1,25.8,17.9,33.7,34.5c-6-3.8-5.7-17.7-14-15.6c-3.4-4.1-8.5-8-13.6-9.9
				c-12.8-4.7-70.7-7.5-74-5.8c-1,0.5-1.5,6.7-1.2,8.2c-0.1,0-0.6,1.6-1.2,1.6c-8.7-0.1-17.5-0.2-26.3,0c-0.3,0-1.1-1.7-2.1-1.6
				c-0.3-1.6,0.6-7.5-0.4-8.2c-2.3-1.7-45.5,2-51.4,3.3c-11.5-5.5,3.9-4.5,4.1-9c14.7-3,31.1-2.8,46-3.3
				c-5.8,13.9,12.7,4.3,31.6,8.2c3.2-4,1.4-4.7,1.2-9C284.7,107,319.2,108.2,334.8,113.2z"/>
			<path class="st19" d="M239.9,115.7c4.9,0.5,22.2-0.7,23.8,0c1.8,0.8,1.4,8.2,1.2,8.6C264.2,125.9,230.5,130.1,239.9,115.7z"/>
		</g>
		<g>
			<path class="st20" d="M354.5,132.1c9,10.9,18.7,41.8,20.5,56.7c-0.7,1.8,1.5,6.1-3.7,8.2c-4.9,2-42.4,1.5-51.4,1.6
				c1-3.3,12-3.7,11.5-7.4c11.4-0.4,22.8,0.6,34.1-1.6c2.4-2.9-2.1-10.9-2.9-14c-1.6-6-2.7-9.1-4.9-14.8c-2-5.2-3.8-9.9-6.6-14.8
				c-11.6-20-23.6-18.8-45.6-20.5c-10-0.8-28.8-0.7-39.9-0.8c-0.2-1.6,0.2-7.7,1.2-8.2c3.3-1.8,61.2,1.1,74,5.8
				C346,124.1,351.2,128,354.5,132.1z"/>
			<path class="st20" d="M236.2,124.7c-13.8,0.3-44.5,0.2-56.3,4.9c-11.1,4.5-13.3,16-17.7,25.5c-2,4.3-4.2,8.7-5.8,13.1
				c-1.2,3.3-2.3,6.5-3.3,9.9c-0.6,1.9-4.8,11.8-2.9,13.1c7.8,0.2,15.6-0.2,23.4,0c-0.8,4.5,5.7,4.8,6.6,7.4
				c-5.7-0.1-38.2,0.2-40.3-2.5c7.4-27.8,11.2-69,44.4-76.4c5.9-1.3,49-4.9,51.4-3.3C236.8,117.2,235.9,123.1,236.2,124.7z"/>
			<path class="st21" d="M182.8,191.3c43.2,1.1,86.7,1.7,129.8,0.8c6.3-0.1,12.6-0.6,18.9-0.8c0.5,3.7-10.5,4.1-11.5,7.4
				c-46.4,0.7-93.3,0.9-139.7,0c-0.9-2.6-7.3-2.9-6.6-7.4C176.8,191.4,179.8,191.2,182.8,191.3z"/>
			<path class="st22" d="M265.8,124.7c11.1,0.1,29.9,0,39.9,0.8c22,1.7,34.1,0.5,45.6,20.5c2.4,32-30.8,12.2-56.3,9
				c-16.7-2-88.5-4.3-100.2,3.3c-2.5,1.6-2.7,4.6-2.9,4.9c0,0.1-0.3-0.3-0.8,0.8c-14.4-4.5-14.4-4.5-28.8-9
				c4.3-9.5,6.5-21,17.7-25.5c11.8-4.7,42.5-4.6,56.3-4.9c0.9,0,1.7,1.6,2.1,1.6c8.7-0.2,17.5-0.1,26.3,0
				C265.2,126.4,265.7,124.7,265.8,124.7z"/>
			<path class="st23" d="M357.8,160.9c2.3,5.7,3.3,8.8,4.9,14.8c-8.5,3.3-17.5,4.3-26.3,6.6c-0.7-0.3-1.9-2.4-2.1-2.5
				c-5.6-1.8-60.3-0.7-72.7-0.8c0.2-1.7,0.6-8.3-1.2-9c-24.4,9.6-28,8.7,1.2,9c-0.1,1.3,0.4,2.7-0.4,3.3c-1.4-0.9-1.2-2.4-1.6-2.5
				c-3.2-0.6-56.6,0-65.7,0c-1,0-5.8,2.5-6.2,2.5c-11.6-0.1-23.4-0.9-34.5-4.1c1-3.4,2.1-6.6,3.3-9.9c11.1-0.5,21.9,1.7,32.5,4.9
				c1.3-1.5,1.9-8.6,2.1-9c0.5-1.1,0.8-0.8,0.8-0.8c9.2-2.5,9.2-2.5,18.5-4.9c23.7-4.5,119.4,11.8,128.2,10.7
				C340.8,168.8,354.6,163.3,357.8,160.9z"/>
			<path class="st23" d="M357.8,160.9c-3.3,2.4-17.1,7.9-19.3,8.2c-8.8,1.1-104.5-15.1-128.2-10.7c-9.2,2.5-9.2,2.5-18.5,4.9
				c0.2-0.3,0.4-3.3,2.9-4.9c11.8-7.6,83.6-5.3,100.2-3.3c25.5,3.1,58.7,22.9,56.3-9C354.1,151,355.8,155.7,357.8,160.9z"/>
			<path class="st24" d="M331.5,191.3c-6.3,0.2-12.6,0.7-18.9,0.8c-1.5-5,15.1-7.6,23.8-9.9c8.7-2.3,17.8-3.2,26.3-6.6
				c0.8,3,5.3,11.1,2.9,14C354.4,191.9,342.9,190.9,331.5,191.3z"/>
			<path class="st25" d="M187.8,182.3c-2.5,4.5-2.5,4.5-4.9,9c-3-0.1-6,0.1-9,0c-7.8-0.2-15.6,0.2-23.4,0c-2-1.4,2.3-11.2,2.9-13.1
				C164.4,181.4,176.2,182.2,187.8,182.3z"/>
			<path class="st23" d="M191,164.2c-0.2,0.4-0.7,7.5-2.1,9c-10.5-3.2-21.3-5.5-32.5-4.9c1.6-4.4,3.8-8.9,5.8-13.1
				C176.7,159.7,176.7,159.7,191,164.2z"/>
			<path class="st23" d="M336.5,182.3c-8.7,2.3-25.4,4.9-23.8,9.9c-43.2,0.9-86.7,0.3-129.8-0.8c2.5-4.5,2.5-4.5,4.9-9
				c0.3,0,5.2-2.5,6.2-2.5c9.1,0,62.5-0.6,65.7,0c0.4,0.1,0.3,1.6,1.6,2.5c0.8-0.6,0.3-2,0.4-3.3c12.4,0.2,67.1-1,72.7,0.8
				C334.6,179.8,335.8,182,336.5,182.3z"/>
			<path class="st26" d="M261.7,179c-29.2-0.4-25.6,0.6-1.2-9C262.3,170.7,261.9,177.3,261.7,179z"/>
		</g>
	</g>
</g>
</svg>
