<?xml version="1.0" encoding="utf-8"?>
<!-- Generator: Adobe Illustrator 28.0.0, SVG Export Plug-In . SVG Version: 6.00 Build 0)  -->
<svg version="1.1" id="Layer_1" xmlns="http://www.w3.org/2000/svg" xmlns:xlink="http://www.w3.org/1999/xlink" x="0px" y="0px"
	 viewBox="0 0 1200 630" style="enable-background:new 0 0 1200 630;" xml:space="preserve">
<style type="text/css">
	.st0{fill:#F4E8E2;}
	.st1{fill:#1B1C25;}
	.st2{fill:#D3E2E8;}
	.st3{fill:#83BCCC;}
	.st4{fill:#F5AF25;}
	.st5{fill:#2B2212;}
	.st6{fill:#37402F;}
	.st7{fill:#32443B;}
	.st8{fill:#3D3420;}
	.st9{fill:#343330;}
	.st10{fill:#2F4041;}
	.st11{fill:#B4C7BA;}
	.st12{fill:#6C4421;}
	.st13{fill:#D7C9A1;}
	.st14{fill:#1A8B8C;}
	.st15{fill:#EDC463;}
	.st16{fill:#BDD531;}
	.st17{fill:#F6D85F;}
	.st18{fill:#ABBAB3;}
	.st19{fill:#F2D990;}
	.st20{fill:#087B8F;}
	.st21{fill:#1E9EB6;}
	.st22{fill:#C5812A;}
	.st23{fill:#B7B4AF;}
	.st24{fill:#A1BDB4;}
	.st25{fill:#A8B5BA;}
	.st26{fill:#EEF3F7;}
	.st27{fill:#D8423E;}
	.st28{fill:#E5E4E9;}
	.st29{fill:#DB6771;}
	.st30{fill:#EAADAB;}
	.st31{fill:#61A1AF;}
	.st32{fill:#448391;}
	.st33{fill:#CC2128;}
	.st34{fill:#E85651;}
	.st35{fill:#20190F;}
	.st36{fill:url(#SVGID_1_);}
	.st37{fill:#DC7327;}
	.st38{fill:url(#SVGID_00000107577456918987184550000013493415658005752506_);}
	.st39{fill:#6B4043;}
	.st40{fill:#4E4E4F;}
	.st41{fill:#F48453;}
	.st42{fill:#67594F;}
	.st43{fill:#DCB290;}
	.st44{fill:#ED6B4E;}
	.st45{fill:#1E2935;}
	.st46{fill:#072B39;}
	.st47{fill:#028F9D;}
	.st48{fill:#5AC5D6;}
	.st49{fill:#19AFC7;}
	.st50{fill:#B95230;}
	.st51{fill:#51919E;}
	.st52{fill:#CD9D2F;}
	.st53{fill:#E5C4C4;}
	.st54{font-family:'Lato-Black';}
	.st55{font-size:70px;}
</style>
<rect x="-247.8" y="-228.1" class="st0" width="1626.2" height="987.3"/>
<path class="st1" d="M-18.5,632.5c38.2-0.9,76.8-0.6,115-0.8h46.8h75.2h109.7c36.8,2.1,73.6,0,110.4,0c22.7,0,45.6,0.9,68.3,0.8h10
	c13,0,26.1-0.8,39.1-0.8c14.3,0,28.7,0.2,42.9,0c5.5,0,47.4,1.1,48.3-1.2c0.2-62-0.2-123.9,0-185.9c0-1.5,0-3.1,0-4.6
	c0-7.7,0-15.3,0-23c0-22.2,0-44.5,0-66.7c0-9.5,0-18.9,0-28.4c0.2-81.6,0.9-163,0.8-244.6c0-8.4,0-16.9,0-25.3
	c0-19.9,0.9-43.7,0-62.9c-0.2-3.4,0.2-6.9,0-10.3c-33.6-2.6-68.6-0.5-102.8-1.2c15.3-0.2,96.6,0.3,102.5-0.8c0.8-0.2,8.6-8.1,11,1.8
	c1.7,6.3-1.5,101.8-1.5,118.9c0,55.7,2.3,111.5,2.3,167.2c0,5.4-1.5,11.5-1.5,16.9c0.2,116.6,0.3,233.1,1.5,349.7
	c-1.5,6-6.6,9.5-12.6,10.4c-6.3,0.9-69.3-0.9-87.4-0.8c-0.2,0-3.7,1.5-3.8,1.5c-13,0-26.1,0-39.1,0c-0.2,0-2.1-1.5-2.3-1.5
	c-114.6-0.2-229.1,0.8-343.6,0c-5.4,0-11.5-1.5-16.9-1.5c-6.7,0-14,0.8-20.7,0.8c-0.2,0-2.1-1.5-2.3-1.5c-0.5,0-2,2.9-8.4,0
	c-28.1,2-56.7-1.1-85.1,2.3c-6.1-4.4-49.1-0.5-51.4-1.5C-14.7,639.1-18.8,633.7-18.5,632.5L-18.5,632.5z"/>
<path class="st2" d="M85,410.9C52.8,386.4-15,385.1-20,420.4c-2,14.3,1.5,96.8,0,122.4c-1.5,0.2-2.9,1.2-5.4,0.8
	c-0.3-40.3,0.2-80.8,0-121.2c6,0.3,4-5.7,5.4-8C-0.9,379.6,59.4,389,85,410.9z"/>
<path class="st2" d="M-19.3,55.1c-0.5,0-1.5,0.9-1.5,1.2c-1.4,6.4,1.1,71.6,0,88.2c0.6,0.8,1.2,1.8,1.5,2.8c-3.4-1.1-0.6-4-6.1-2.3
	c0-29.9,0-59.8,0-89.7C-21.7,56-21.3,54.2-19.3,55.1z"/>
<path class="st2" d="M-11.6,287.4c-2.1-0.2-6.9-2.3-9.2,0.3c0.3,39,0.3,39,0.8,77.9c-2.6-2-0.5-3.7-5.4-3.1c0-25.3,0-50.6,0-75.9
	C-21.6,287.7-13,283.3-11.6,287.4z"/>
<path class="st2" d="M-18.5,214.6c-0.2,1.1-2.1,2.1-2.3,2.8c-0.9,3.7,0.2,39.1,0.8,47.2c-1.2,0-2.8,1.2-5.4,0.8
	c0-15.8,0-31.7,0-47.5C-22.8,217.6-20.8,215.7-18.5,214.6z"/>
<path class="st3" d="M-20,264.4c-0.6-8-1.7-43.4-0.8-47.2c0.2-0.5,2.1-1.5,2.3-2.8c8.3-4.3,16.6-8.7,24.8-13
	c1.1,0,16.4,10.6,19.2,12.3c3.4,2,20.2,8.4,20.2,12c-9.5,16.9-7.8,39.6-31.9,41.7C2.8,268.4-8.8,264.3-20,264.4z"/>
<path class="st0" d="M-22.3-20.8c0.9,9-1.5,25.5,0.8,33.4c1.1,3.8,17.8,26.8,21.5,32.5c0.5,0.8,1.1,1.5,1.5,2.3
	c34.4,54,59.2,97.1,88.2,154.4c24.7,48.9,53.4,98.6,55.2,154.9c-0.8,137.4-0.8,137.4-1.5,275c-15.6,0-31.1,0-46.8,0
	c0.9-3.4,12.4,0,15.6-3.1c1.4-1.2-0.5-1.5-0.3-1.5c3.1-6.6,5.5-48.3,6.4-59.8c-5.5-0.6-11.3,2.3-12.3,2.3
	c-25.2,1.8-92.3-3.5-123-4.6c-0.9-4.1-5.4,1.1-8.4,0c-0.2-7.2,0-14.3,0-21.5c2.5,0.5,3.8-0.6,5.4-0.8c17.5-1.4,84.5,4.3,110.1,4.6
	c39.9-4.1,49.5-43.3,39.6-77c-6.7-22.4-27.1-44.3-44.5-59.5C59.6,389-0.6,379.6-19.9,414.3c-1.4,2.5,0.6,8.3-5.4,8
	c0-19.9,0-39.9,0-59.8c4.9-0.6,2.8,1.1,5.4,3.1c2,1.5,5.7,4.1,8,4.6c5.5,0.9,56,0.5,74.4,3.8c1.7-0.8,3.7-2.6,4.9-3.1
	c1.5-0.6,3.1-1.5,4.6-2.3c7.2-3.8,18.7-12.7,26.4-17.6c6.7-4.3,22.7-11.8,24.5-13c13-9.4,1.4-36-5.4-39.1
	c-5.8-2.8-114.4-10.9-129.1-11.5c-1.4-4.1-9.8,0.5-13.8-0.8c0-7.2,0-14.3,0-21.5c2.6,0.5,4.1-0.8,5.4-0.8c11.2-0.2,23,4.1,34,3.1
	c24.1-2.3,22.2-25,31.9-41.7c0-3.4-16.9-10-20.2-12c-2.8-1.7-18.1-12.3-19.2-12.3c-8.3,4.3-16.6,8.7-24.8,13
	c-2.3,1.2-4.1,3.1-6.9,3.1c0-24.2,0-48.6,0-72.9c5.5-1.7,2.8,1.2,6.1,2.3c2,5.5,14.4,22.9,20.4,23.8c11,1.7,34.4-21.6,44.8-27.9
	C32.7,118.6,14,83-6.4,64.9c-1.4-1.2-12-9.7-12.7-10c-1.8-0.8-2.3,0.9-6.1,0c-0.2-25.3,0.3-50.5,0.6-75.8L-22.3-20.8z"/>
<path class="st3" d="M81.5,219.2c2.1-0.2,3.2-0.3,4.9,1.2c1.8,1.7,21.3,42.2,22.2,44.5c1.2,3.4,4,7.4-0.3,9.5
	c-2.8,1.4-48.3-4.3-55.5-5.8C57.1,258.6,70.9,220.1,81.5,219.2z"/>
<path class="st3" d="M116.8,367.2c5.8-1.1,10.7,1.7,13.5,6.4c3.1,5.5,7.5,46.3-1.2,45.7c-2.5-0.2-28.1-32.1-32.5-35.6
	C100.4,380.2,112.9,367.8,116.8,367.2z"/>
<path class="st3" d="M54.7,164.7c28.7,41.4,0.2,31.7-29.4,21.2C39.9,175.2,39.9,175.2,54.7,164.7z"/>
<path class="st0" d="M161.7-22.4c0.2,3.2-2.1,5.4-3.8,7.7c-2.3,3.2-17,22.7-16.1,24.8c21.9,8.7,83.3,19,98.2,4.6
	c-6.4-7.8-21.8-19.9-26.8-27.3c-2.1-3.1-4-5.8-3.8-10h19.2c0.2,2.5-1.7,12-1.5,12.6c0.5,1.7,22.9,21.5,26.1,24.2
	c34.8,29.6,50,29.6,87.4,69.3c14.7,15.8,91.1,108.3,102,124.2c17,25.2,39.6,77.1,54,88.6c8.3,6.6,15.5,8.4,25.8,8.4
	c1.8,6.3,2.8,12.7,3.8,19.2c-8.9,2.3-49.8-0.5-52.5,0.8c-1.5,0.6-1.5,7.2-1.2,8c1.5,3.5,48.3-0.2,55.2-0.3
	c28.1-0.8,83.3-1.4,107.4-4.6c6.7,2,12,1.2,12.3-6.1v28.4c-27.6,2.9-143.9,3.4-156.1,6.1c-25.5,5.7-24.7,55.5,10,59.8
	c18.9,2.3,116.7-0.8,146,0.8v23c-28.1,0.6-106.9-3.8-125.5-1.5c-8.7,1.1-20.2,6.7-23.3,15.6c-8.3,23.9,29.3,116.6,55.5,121.5
	c14.6,2.8,22.5-5.2,23.8-5.4c1.7-0.3,4.1,2.5,8.9,1.5c-1.7,2.5-1.4,2.9-1.5,3.1c-5.7,8.6-12.4,14.1-6.1,24.8
	c5.7,9.7,53.8,23.6,66.3,28.8c-0.9-10.4,5.2-27.8-6.4-29.1h0.8c3.1,0.2,5.5,1.4,6.1,0.3c-0.9-51.8-2.1-104.8,1.5-155.2
	c-0.2,62,0.2,123.9,0,185.9c-0.9,2.1-42.8,1.1-48.3,1.2c-37.4-22.2-62.7-33-82.8-73.9c-10.7-22.1-23.5-62.1-30.7-86.7
	c-7.5-25.5-36-130.2-36.8-150c0-1.5-0.9-1.8-0.8-3.1c0.3-1.2,0.3-1.2,0.8-2.3c2.5-2.6,18.6-2.8,15.3-9.5c-1.2-2.8-15.8,0.8-17.6-3.4
	c-0.5-3.4-1.8-6.6-2.3-10c10,1.1,25.5-6.1,17.6-17.6c-3.8-5.7-8.9-4.6-14.6-3.8c-11.8-26.7-17.8-41-35.3-64.7
	c-15.2-20.9-99.1-121.8-114.7-134.7c-6.4-5.2-36-23.9-42.9-25.3c-10.3,0-76.2-4.9-79.8-3.1c-1.5,0.8,1.2,2.3,1.8,3.8
	C154.8,31.5,131,19.9,108.5,6.6c2.1-3.2,13.5-19.5,13.8-20.7c0.6-2.5-0.6-5.2-0.8-7.7C135-21.8,148.4-22.4,161.7-22.4L161.7-22.4z"
	/>
<path class="st2" d="M545.1-22.4c34.2,0.8,69.2-1.5,102.8,1.2c0.2,3.4-0.2,6.9,0,10.3c-2.8,0-2.8,0-5.4,0c-206.9,0-206.9,0-413.8,0
	C240.9,1.9,240.9,1.9,253,14.4c-3.2-2.6-25.6-22.4-26.1-24.2c-0.2-0.6,1.7-10.1,1.5-12.6C334-22.7,439.5-21.3,545.1-22.4z"/>
<path class="st2" d="M209.3-22.4c-0.2,4.1,1.7,6.9,3.8,10c-1.8,0.3-2.8-2.1-3.4-2.3c-4.9-1.2-40.8,0.9-51.8,0c1.7-2.3,4-4.4,3.8-7.7
	C177.5-22.5,193.3-22.4,209.3-22.4z"/>
<path class="st0" d="M316.6,608c6.3,8,14.4,15,19.9,23.8c-2.8,0-5.7,0-8.4,0c-36.5,0-73.2,0-109.7,0c0.3-10-0.2-19.9-0.8-29.9
	c12.1,14.9,31.3,17.9,48.8,23C273.5,625.2,307,611.5,316.6,608z"/>
<path class="st2" d="M121.8-21.6c0.2,2.5,1.4,5.2,0.8,7.7c-32.2,0-32.2,0-64.4,0c-6.6-2.5-13.7-3.5-19.9-6.9
	C66-21.2,93.9-21.5,121.8-21.6z"/>
<path class="st3" d="M122.6-13.9c-0.3,1.2-11.7,17.5-13.8,20.7c-17-6.3-33.6-14.4-50.6-20.7H122.6z"/>
<path class="st4" d="M36.7-20.1c2,0,1.4-0.8,1.5-0.8c6.3,3.4,13.3,4.4,19.9,6.9c17,6.3,33.6,14.4,50.6,20.7
	c22.5,13.3,46.3,24.8,67.5,40.6c44.8,33.4,62.1,73.6,89.7,119.9c7.2,10,15.3,19.9,21.5,30.4c-23,1.1-28.8,2.5-44.5,23
	c-1.2,0.8-10.6,8.9-11.5,10c-27.1-45.6-42.2-98.5-78.2-138.3C116.6,51.5,62.8,22.1,11,6v1.5c14.3,8.3,29,18.9,40.3,31
	C78,67,115.2,139,138.7,175c21.5,44.2,21.5,44.2,42.9,88.2c2.8,4,2.8,4,5.4,8c-10.4,12.3,3.7,23.3,16.1,21.5
	c-2.5,8.7-10.1,23.6-6.9,26.8c-2.1,1.1-3.8,5.7-3.8,6.1c-5.1,1.5-37.9,1.8-39.6,3.1c-8.3,6.7,28.5,0.3,40.2,1.5
	c-0.3,5.4,0.8,10.9,0.8,16.1v9.2c0.2,6.9-0.2,13.8,0,20.7v10c-3.8,2.8-41.1-2.6-36,4.3c1.2,1.5,33.7-0.3,38.3,0.3
	c0.2,2.6-0.2,5.1,0,7.7c0.2,4.3-0.2,8.7,0,13c-3.5,0.6-41.1-0.9-41.4,1.2c-0.8,5.4,35,1.4,40.6,2.8c0.2,6.1,1.5,12.6,0.8,18.7
	c1.4,2,5.7,0.9,10,1.2v4.6c-1.2,54.4,8.3,107.7,11.5,161.8c0.6,10,1.1,19.9,0.8,29.9c-25,0-50.2,0-75.2,0
	c0.8-137.4,0.8-137.4,1.5-275c-1.8-56.3-30.5-106-55.2-154.9c-28.8-57.4-53.7-100.5-88-154.4c8-2.1,37.9,0.3,39.4-0.8
	c0.5-0.3,0.6-2.5,0.3-2.8c-1.2-1.7-39-0.9-41-0.3c-0.6,0.2-0.5,1.1-0.3,1.5c-3.7-5.8-20.4-28.7-21.5-32.5c-2.3-8,0-24.5-0.8-33.4
	C-2.7-21.9,17.1-19.9,36.7-20.1z"/>
<path class="st5" d="M36.7-20.1c-19.6,0.2-39.4-1.8-59-0.8c-1.2,0-1.2,0-2.3,0c0,0-0.8,0.2-0.8-0.8c9.8,0.8,58.7-1.1,61.7,0
	C36.9-21.5,36.7-20.7,36.7-20.1z"/>
<g>
	<path class="st6" d="M195.8,552c12.7-0.3,13.2,3.1,5.4,4.6c-2,0.5-38.3,3.5-39.6,1.8c-0.2-0.2-0.2-3.1,0.3-3.4
		C163.4,554,192.1,552,195.8,552z"/>
	<path class="st6" d="M1.4,47.4c-0.5-0.8-1.1-1.5-1.5-2.3c0-0.5-0.2-1.4,0.3-1.5c2-0.5,39.7-1.2,41,0.3c0.2,0.3,0.2,2.3-0.3,2.8
		C39.2,47.7,9.3,45.3,1.4,47.4z"/>
	<path class="st6" d="M96.1,202.3c2.1-1.1,45.4-0.9,47.5,0c12.4,5.4-35.9,3.5-47.5,4.6C94.4,205.8,94.4,203.1,96.1,202.3z"/>
	<path class="st6" d="M186.6,483.7c8,0,17.9,0.5,10.7,3.8c-1.8,0.9-41,3.1-41.7,1.2c-0.8-1.5,0.5-2.9,1.8-3.4
		C158.8,484.7,183.2,483.7,186.6,483.7L186.6,483.7z"/>
	<path class="st6" d="M192.4,325.8c0,0.3,0.9,2.1,0.8,4.6c-11.8-1.2-48.5,5.2-40.2-1.5C154.4,327.5,187.2,327.3,192.4,325.8z"/>
	<path class="st6" d="M196.2,411.7c0.2,3.8-0.8,3.7-0.8,3.8c-5.7-1.2-41.4,2.8-40.6-2.8C155,410.7,192.7,412.3,196.2,411.7z"/>
	<path class="st6" d="M178.1,437c16.7-0.2,19.6,2.5,10.7,3.8c-1.8,0.3-36.8,2.6-38,1.2c-0.2-0.2-0.2-3.1,0.3-3.4
		C152.4,437.6,175.1,437,178.1,437L178.1,437z"/>
	<path class="st6" d="M167.4,270.6c14.9,4.8-34,8.6-35,6.4C130.4,271.6,162.6,273,167.4,270.6z"/>
	<path class="st6" d="M196.2,391c-4.6-0.8-37.1,1.1-38.3-0.3c-5.1-6.7,32.2-1.4,36-4.3C193.9,387,196.1,388.5,196.2,391z"/>
</g>
<path class="st7" d="M50.1,114.9c1.8-1.2,41.7-0.9,43.7,0c11.2,4.9-31.6,2-42.9,3.8C49.4,118,49.3,115.3,50.1,114.9z"/>
<path class="st6" d="M37.8,88c1.5-0.9,34.5-0.9,36,0c0.5,0.3,0.6,2.5,0.3,2.8c-1.1,1.4-34,1.1-35.6,0.3C37.6,90.7,36.7,88.5,37.8,88
	z"/>
<path class="st8" d="M50.1,52l4.6,23C40.7,77.2,47,70.9,50.1,52z"/>
<path class="st8" d="M109.9,171.6c0.6,2.6,4.6,18.6,4.3,19.6c-0.6,1.7-8.4,1.4-8.9,1.2C103.9,191.3,108.5,174.1,109.9,171.6z"/>
<path class="st9" d="M14,14.4c3.4-1.4,4.6,15.6,3.8,16.1c-0.3,0.2-6.9,0.2-7.2-0.3C9.9,29.2,13.1,14.7,14,14.4z"/>
<path class="st6" d="M204.2,137.1c1.7-0.6,34.4-0.8,36,0c1.1,0.5,1.7,2.9,1.2,3.4c-1.2,1.4-35.4,1.1-37.1,0.3
	C202.7,140.2,202.7,137.7,204.2,137.1z"/>
<path class="st6" d="M138.2,51.2c1.5-0.9,34.5-0.9,36,0c0.5,0.3,0.6,2.1,0.3,2.8c-0.6,1.7-34,1.8-35.6,1.2
	C137.6,54.3,137.5,51.7,138.2,51.2z"/>
<path class="st10" d="M162.8,79.6c1.7-1.1,38.2-1.1,39.9,0c0.5,0.3,0.6,2.5,0.3,2.8c-1.2,1.5-38.6,1.5-40.2,0.3
	C162.2,82.2,162.2,79.9,162.8,79.6z"/>
<path class="st6" d="M104.5,12.1c1.5,6.4,3.8,22.7-4.6,19.2C97.6,30.2,103.3,12,104.5,12.1z"/>
<path class="st0" d="M483.8,618.7c3.1,0.9,19.5,10.9,23,13.8c-22.7,0.2-45.6-0.8-68.3-0.8c-1.2,0.3-2-0.2-3.1-0.8
	c-10.3-5.4-29.6-18.7-38.3-26.8C415.9,610,473.7,615.5,483.8,618.7z"/>
<path class="st11" d="M647.9,77.3c0.2,81.6-0.6,163-0.8,244.6c-0.3,7.4-5.5,8.1-12.3,6.1c2.8-0.3,5.7,0.2,8.4-1.2
	c-0.9-17.6,0.9-35.4,0.8-52.9c0-0.2-1.1-1.8-1.5-1.8c0.8-0.9,0.8-0.9,1.5-1.8c0.8-6.4-0.8-13.2-0.8-19.6c-0.2-57.5,0-115,0-172.5
	C644.2,78.1,643.9,79.9,647.9,77.3z"/>
<path class="st11" d="M647.9-10.9c0.9,19.2,0,42.9,0,62.9c-2.5,0.3-0.9-4.3-3.8-1.5c-0.3,0-0.5,0-0.8,0c-0.3-30.7-0.3-30.7-0.8-61.3
	H647.9z"/>
<path class="st12" d="M555.9,631.8c-13,0-26.1,0.8-39.1,0.8c0.3-1.4-0.5-6.3,0.3-6.9c1.5-1.1,36-1.1,37.6,0
	C555.7,626.2,554.2,629.6,555.9,631.8z"/>
<path class="st13" d="M647.9,52v25.3c-3.8,2.8-3.7,0.8-4.6,0.8c-0.3,0-0.5,0-0.8,0c2.5-8.9,0.8-18.4,1.5-27.6
	C646.8,47.6,645.5,52.3,647.9,52z"/>
<path class="st2" d="M-17,565c-1.8,0.2-1.8,0.2-3.8,0.3c0.6,30.5,0.6,30.5,1.2,61c65.8,0.3,65.8,0.3,131.6,0.8c0,0,1.7,0.3,0.3,1.5
	c-3.2,3.1-14.7-0.3-15.6,3.1c-38.2,0.2-76.8-0.2-115,0.8c-2.1,0-2.6,0.9-3.8,0c-0.2-0.2-2,0.3-2.3-0.3c0.2-22.5-0.8-44.9-0.9-67.2
	C-22.5,566.1-17.9,560.7-17,565z"/>
<path class="st14" d="M85,410.9c17.3,15,37.7,37.1,44.5,59.5c10.1,33.9,0.5,72.9-39.6,77c-25.5-0.3-92.6-6-110.1-4.6
	c1.5-25.5-2-108,0-122.4C-15,385.1,52.7,386.2,85,410.9z"/>
<path class="st15" d="M27.8,417c5.7-1.5,14,1.7,16.1,7.7c5.8,0.2,13.7-1.4,16.9,5.4c16.1-6.9,39.7,8,26.8,11.5
	c-3.8,1.1-26.4-1.1-30.7,0c-3.4,0.9,4.3,5.8-33,3.8c-6.1-0.3-13.7-2.8-16.1-3.1c-2.8-0.3-18.4,3.7-18.7-2.8
	c-0.5-6.1,11.3-4.6,12-4.9c1.1-0.8-2.8-14.4,19.2-4.6C21.7,429.5,22,418.6,27.8,417z"/>
<path class="st16" d="M75.4,471.5c7.5-2,7.7,11,0,8.4C72.3,478.8,71.8,472.2,75.4,471.5z"/>
<path class="st16" d="M37,487.6c5.7-0.9,6.3,8.4,1.5,9.2C33.3,497.7,32,488.3,37,487.6z"/>
<path class="st3" d="M-17,565c30.7,1.1,98,6.4,123,4.6c0.9,0,6.7-2.9,12.3-2.3c-0.9,11.5-3.5,53.2-6.4,59.8
	c-65.8-0.3-65.8-0.3-131.6-0.8c-0.6-30.5-0.6-30.5-1.2-61C-19,565.2-19,565.2-17,565z"/>
<path class="st17" d="M81.5,604.1c2.3-0.5-0.5,15.2-1.2,15.6c-0.6,0.5-8.9,0.6-9.5,0.3C68.2,619.2,80.4,604.3,81.5,604.1L81.5,604.1
	z"/>
<path class="st17" d="M12.5,573.5c9.4-4.8,10.4,16.1,2.3,12.3C10.2,583.4,10.8,574.2,12.5,573.5z"/>
<path class="st3" d="M-19.3,147.1c-0.3-0.9-0.9-2-1.5-2.8c1.1-16.6-1.4-81.7,0-88.2c0-0.3,1.1-1.2,1.5-1.2c0.8,0.3,11.2,8.7,12.7,10
	c20.4,18.1,39.3,53.7,52.5,77.9c-10.6,6.4-33.9,29.8-44.8,27.9C-4.8,169.9-17.4,152.6-19.3,147.1z"/>
<path class="st17" d="M-2.9,124.1c4.9-1.5,4.6,6.1,3.8,11.5C-20.5,128.8-22,134.2-2.9,124.1z"/>
<path class="st3" d="M-11.6,287.4c14.9,0.6,123.3,8.7,129.1,11.5c6.7,3.1,18.4,29.8,5.4,39.1c-1.8,1.2-17.8,8.7-24.5,13
	c-7.7,4.9-19.2,13.8-26.4,17.6c-2.3-2.5-17.6-23.5-17.6-25c0-1.4,2.5-4.8,3.1-4.9c1.8-0.6,8.1,0.6,10.4,0c0.9-0.3,13.5-9.8,15.3-10
	c2.8-0.2,2.6,3.5,5.8,3.8c4,0.3,6.9-8.9,6.9-9.5c0.5-10.9-9,1.5-12.3,3.4c-0.6,0.3-2.9-0.3-3.4,0c-2.5,1.5-14.6,10-16.1,10
	c-10.1-5.7-11.7-10.4-18.4,1.5c-5.4-0.6-27-1.8-29.4-1.5c0-0.9,1.5-1.5,1.5-1.8c0.3-3.1-13-5.4-13.8-3.1c-0.6,17.9,2.5,6.3,12.3,4.9
	c0,4.1,23.6,2,29.4,2.3c6.1,10.1,18.3,21.8,21.8,32.2c-1.2,0.5-3.4,2.3-4.9,3.1c-18.4-3.4-68.9-2.9-74.4-3.8c-2.5-0.5-6-3.1-8-4.6
	c-0.3-39-0.3-39-0.8-77.9C-18.5,285.1-13.9,287.3-11.6,287.4z"/>
<path class="st18" d="M83.5,326.5c2.8,3.1,2.8,3.1,5.4,6.1c-3.2-0.3-3.1-4-5.8-3.8c-1.8,0.2-14.4,9.7-15.3,10
	c-2.3,0.6-8.6-0.6-10.4,0c1.7-1.2,4-1.2,3.8-2.8c-9.2-8-14.9-1.7-13.8,3.8c0.6,3.1,15,16.7,4.6,3.1c3.5-4.3,5.1-4,5.4-4.3
	c-0.6,0.2-3.1,3.7-3.1,4.9c0,1.5,15.3,22.5,17.6,25c-1.5,0.8-3.1,1.7-4.6,2.3c-3.5-10.4-15.6-22.1-21.8-32.2
	c-5.8-0.3-29.6,1.8-29.4-2.3c2.6-0.3,24.2,0.9,29.4,1.5c6.7-12,8.3-7.2,18.4-1.5c1.5,0,13.7-8.4,16.1-10
	C80.6,326.1,82.9,326.8,83.5,326.5z"/>
<path class="st15" d="M16,336.5c-9.8,1.4-12.9,12.9-12.3-4.9c0.8-2.3,14.1,0,13.8,3.1C17.4,335,16,335.6,16,336.5z"/>
<path class="st15" d="M88.9,332.7c-2.8-3.1-2.8-3.1-5.4-6.1c3.2-1.8,12.7-14.4,12.3-3.4C95.6,323.6,92.9,333,88.9,332.7z"/>
<path class="st19" d="M57.4,338.8c-0.3,0.2-1.8-0.2-5.4,4.3c10.4,13.7-4,0-4.6-3.1c-1.1-5.5,4.6-11.8,13.8-3.8
	C61.4,337.6,59.1,337.4,57.4,338.8z"/>
<path class="st3" d="M213.1-12.4c5.1,7.4,20.4,19.5,26.8,27.3c-14.9,14.4-76.2,4.1-98.2-4.6c-0.9-2.1,13.8-21.6,16.1-24.8
	c11,0.9,46.9-1.2,51.8,0C210.2-14.6,211.3-12.1,213.1-12.4z"/>
<path class="st4" d="M642.5,272.1c-37.1,21.5-73.5,45.6-116.6,52.9c0-0.3,0-0.5,0-0.8c-1.1-6.4-2-12.9-3.8-19.2
	c39.1,0.3,87.9-35.3,121.2-54.4c0,6.4,1.5,13,0.8,19.6C643.3,271,643.3,271,642.5,272.1z"/>
<path class="st3" d="M526,325c0.3,2.5,0.6,5.5,1.5,7.7c-6.9,0.2-53.7,3.8-55.2,0.3c-0.5-0.9-0.3-7.4,1.2-8
	c2.8-1.2,43.7,1.5,52.5-0.8C526,324.4,525.8,324.7,526,325z"/>
<path class="st20" d="M461.6,275.2c7.8,11.5-7.7,18.7-17.6,17.6c-2.1-0.3-1.5-0.8-1.5-0.8c-2-4.1-2.5-8.9-3.8-13
	C446.1,277.9,455.6,279.6,461.6,275.2z"/>
<path class="st21" d="M461.6,275.2c-5.8,4.6-15.3,2.8-23,3.8c-0.5-1.2-1.8-3.2-2.3-4.6c2.8-0.9,8.1-2.8,10.7-3.1
	C452.5,270.6,457.7,269.5,461.6,275.2z"/>
<path class="st3" d="M448.5,315.8c-2.5-2.5-1.8-10.6-2.3-13c1.8,4.1,16.4,0.6,17.6,3.4C466.9,313,451,313,448.5,315.8z"/>
<path class="st20" d="M188.6,271.3c0.3,2-3.1,3.7-3.1,4.3c0.2,1.4,25.2,6.4,26.1-0.3h0.8c-4.3,11.3-2.9,16.7-9.2,17.6
	c-12.4,1.8-26.5-9.2-16.1-21.5C187.8,271.3,187.8,271.3,188.6,271.3z"/>
<path class="st21" d="M211.6,275.2c-0.9,6.9-25.9,1.8-26.1,0.3c0-0.5,3.4-2.3,3.1-4.3C195.3,269.2,205.3,271.5,211.6,275.2z"/>
<path class="st4" d="M448.5,321.2c0.8,19.8,29.3,124.4,36.8,150c7.2,24.5,19.9,64.6,30.7,86.7c20.1,41.1,45.4,51.7,82.8,73.9
	c-14.3,0.2-28.7,0-42.9,0c-1.5-2.1-0.2-5.4-1.2-6.1c-1.5-1.1-36-1.1-37.6,0c-0.9,0.6-0.2,5.5-0.3,6.9c-3.4,0-6.6,0-10,0
	c-3.5-2.9-19.9-12.9-23-13.8c-50.9-42.5-59.4-117-75.9-177.9c0-1.8,0-1.8,0-3.8H449c2-1.2-0.2-2,0.3-3.8c1.5-5.4,1.1-16.4-5.4-18.4
	c-0.2-5.7,0.2-11.2,0-16.9c1.5-4.4,1.5-4.4,3.1-8.9c-0.6-4,0.5-8,0.8-12c0.5-6.6-0.2-13.3,0-19.9c0.2-4,0-7.5,0-11.5
	C447.6,336,446.5,321,448.5,321.2L448.5,321.2z"/>
<path class="st6" d="M476.4,494.5c6.4,0,6.3,2.6,4.6,3.8s-37.9,3.8-39.9,3.8c-7.2-0.2-6.9-2.9-3.8-3.8
	C439.2,497.7,474,494.5,476.4,494.5z"/>
<path class="st6" d="M481,522.9c10.3-0.3,12.4,2,6.1,3.8c-1.7,0.5-31.9,3.1-33.7,3.1c-10.6,0.2-10.3-2.6-4.6-3.8
	C450.4,525.5,478.6,522.9,481,522.9z"/>
<path class="st5" d="M507.9,597.2c0.5,3.4,5.4,21.3,3.1,22.2C498.1,619.8,504.3,615,507.9,597.2z"/>
<path class="st22" d="M449.3,433.1c-8,0.3-5.1-7.7-5.4-18.4C450.4,416.7,450.7,427.8,449.3,433.1z"/>
<path class="st2" d="M585,575c0.2-0.2-0.2-0.6,1.5-3.1c0.6-1.1,2.3-1.4,3.1-2.8c-13.3,2.8-12.7-11.8-5.8-13.5
	C594.2,553.2,598.7,566,585,575L585,575z"/>
<path class="st3" d="M647.1,440v4.6c-3.7,50.5-2.5,103.4-1.5,155.2c-0.6,1.1-3.1-0.2-6.1-0.3c-7.2-5.4-16-6.6-23.8-10.7
	c-6.9-3.7-8.1-3.4,0-9.5c-0.6-0.6-0.6-0.6-1.2-1.2c-3.1-0.9-6.4,1.8-7.7,1.5c-1.5-0.3-21.6-15.5,0.8,9.2c1.8-0.2,5.8,0.8,7.4,1.5
	c0.2,0.2,0,1.8,2.8,3.1c4.8,2.3,15.8,5.7,21.2,6.1c11.7,1.4,5.7,18.7,6.4,29.1c-12.6-5.2-60.7-19-66.3-28.8
	c-6.3-10.7,0.5-16.4,6.1-24.8c13.8-9,9.4-21.6-1.2-19.2c-6.9,1.7-7.5,16.3,5.8,13.5c-0.8,1.2-2.5,1.7-3.1,2.8
	c-4.6,0.9-7.1-1.8-8.9-1.5c-1.2,0.2-9.2,8.1-23.8,5.4c-26.4-5.1-63.8-97.7-55.5-121.5c3.1-8.9,14.6-14.6,23.3-15.6
	C540.1,436.2,619.1,440.6,647.1,440L647.1,440z"/>
<path class="st23" d="M639.5,599.5c-0.3,0-0.5,0-0.8,0c-5.4-0.5-16.3-3.8-21.2-6.1c-2.8-1.2-2.5-2.9-2.8-3.1c2,0.2,1.5-0.2,0.8-1.5
	C623.5,592.9,632.1,594.2,639.5,599.5L639.5,599.5z"/>
<path class="st19" d="M615.7,588.8c0.8,1.4,1.2,1.7-0.8,1.5c-1.5-0.8-5.4-1.7-7.4-1.5c-22.4-24.7-2.3-9.5-0.8-9.2
	c1.2,0.3,4.6-2.5,7.7-1.5l1.2,1.2C607.4,585.4,608.8,585.1,615.7,588.8z"/>
<path class="st23" d="M595,476.8c0.9,0.5,2,0.8,2.8,1.5c0.6-0.6,0.6-0.6,1.2-1.2c-3.1-4.6-0.8-4.8-0.8-4.9
	c2.5,8.9,38.2,30.7,22.7,26.1C607.7,487.6,607.7,487.6,595,476.8L595,476.8z"/>
<path class="st17" d="M598.1,472.2c0,0.3-2.3,0.3,0.8,4.9c-0.6,0.6-0.6,0.6-1.2,1.2c-0.8-0.8-1.8-1.1-2.8-1.5
	c-1.8-0.9-10.4-9-10-10.4C604.3,468.4,598.4,467.5,598.1,472.2L598.1,472.2z"/>
<path class="st18" d="M543.6,489.9c4.3-7.2-1.2-7.7-10-10.4c3.1,7.2,5.5,16,8.4,12.6c-3.5,3.5-6-2-7.7-6.4
	c-5.7-14.7,5.5-5.2,21.8,3.4h3.1c2.9,1.5,12.9,7.5,3.8,6.1C558.2,494.5,550.2,484.8,543.6,489.9L543.6,489.9z"/>
<path class="st15" d="M543.6,489.9c-0.2,0.3-1.4,2.1-1.5,2.3c-2.9,3.4-5.4-5.5-8.4-12.6C542.2,482.1,547.9,482.7,543.6,489.9z"/>
<path class="st24" d="M601.1,535.1c-0.6-2.1-0.8-4-1.2-6.1c-1.7,1.1-6.9,4.3-7.4,4.6c0-0.9,1.5-0.8-0.3-2.3
	c-7.2-1.4-12.9-6.7-19.6-9.2c0.3-1.2,0.3-1.2,0.8-2.3c0.9,0.9,9,3.5,11,4.6c2.6,1.4,8.6,6.9,9.2,6.9
	C595.5,531.3,602.2,521.3,601.1,535.1L601.1,535.1z"/>
<path class="st15" d="M601.1,535.1c0.6,1.8,0.5,2.6,2.3,3.8c-1.4,0-10.9,2.3-12.3-0.8c-0.9-2.1,1.5-1.8,1.5-4.6
	c0.3-0.3,5.5-3.5,7.4-4.6C600.2,531.1,600.4,532.8,601.1,535.1z"/>
<path class="st17" d="M573.5,519.8c-0.3,1.2-0.3,1.2-0.8,2.3c-0.3-0.2-4,2-7.4-0.8c-6.9-5.8,5.7-10,6.9-9.2
	C574.1,513,568,515,573.5,519.8z"/>
<path class="st24" d="M603.4,539c19.6,1.1,15.2,3.4-1.2,2.3c-6-0.5-9.7-0.2-11-3.1C592.5,541.3,601.9,538.8,603.4,539z"/>
<path class="st24" d="M592.7,533.6c0,2.8-2.5,2.5-1.5,4.6C588.9,533.4,591.6,534.4,592.7,533.6z"/>
<path class="st3" d="M647.1,350.3V417c-29.3-1.5-127.3,1.5-146-0.8c-34.7-4.3-35.4-54.1-10-59.8
	C503.1,353.7,619.4,353.2,647.1,350.3z"/>
<path class="st15" d="M563.9,368.7c0.6-0.3,14-0.5,14.6,0c1.1,0.8-0.8,7.8-1.2,8C574.9,378.5,553.9,373.5,563.9,368.7z"/>
<path class="st15" d="M527.5,389.4c7.4,3.2,6,5.8,3.8,10.7c-1.4-0.3-1.7,1.4-4.3,0C520.8,393.4,512.6,382.8,527.5,389.4z"/>
<path class="st15" d="M610.6,379.5c0.9-0.3,20.1,4.9,18.7,6.4c-2.5-0.3-17.9,1.5-18.7,1.2C608.9,386.2,608.9,380.1,610.6,379.5z"/>
<path class="st18" d="M531.3,400.2c2.1-4.9,3.5-7.5-3.8-10.7c10,1.8,6.1,8,6.4,8.4C569.4,398.5,556.2,404.6,531.3,400.2z"/>
<path class="st3" d="M447,271.3c-2.6,0.3-8,2.1-10.7,3.1c-2.9-8.3-5.4-16.6-9.2-24.5c-7.4-15.5-14-26.5-31.4-32.2
	c-7.8-7.8-17.2-18.3-28.8-19.9c-4-0.6-69.9-0.5-79.4,0c-6.1-10.4-14.3-20.2-21.5-30.4c-27.5-46.3-44.9-86.5-89.6-119.9
	c-0.6-1.5-3.5-3.1-1.8-3.8c3.5-1.8,69.5,3.1,79.8,3.1c6.9,1.4,36.5,20.1,42.9,25.3c15.6,12.7,99.4,113.8,114.7,134.7
	C429,230.4,435,244.5,447,271.3z"/>
<path class="st19" d="M330.4,174.7c-1.4,3.7-2.1,6.9-6.9,6.9c-4-2.3-2-13.2-1.8-17.6C328.3,167,330,174.1,330.4,174.7z"/>
<path class="st19" d="M298.5,114.9c9.4,12,22.1,21,4.9,18.7C304.7,128.1,297.3,115.3,298.5,114.9z"/>
<path class="st25" d="M323.5,181.6c4.8,0,5.5-3.2,6.9-6.9c0.2,0.2-0.6,0.9,2.8,4.6c27.5,7.5,18.9,12.1-3.1,0.8
	C327.5,180.1,327.8,184.1,323.5,181.6z"/>
<path class="st23" d="M313.1,136.4c1.1-0.3,6.6,4.3,6.9,4.6C325.8,148.9,308.5,137.4,313.1,136.4z"/>
<path class="st26" d="M257.1,73.5c21.6-5.4,14.7,24.4,10.7,35.3c-2.9-5.5-2.9-5.5-5.8-11C245.3,94,248.7,75.5,257.1,73.5z"/>
<path class="st27" d="M266,93.4c1.7-3.1,0.2-12.3-4.9-10.7c-5.8,1.8,3.2,7.2,2.8,11.5c-14.3,1.4-13.3-18.3-3.4-19.2
	C269.4,74.1,274.6,89.3,266,93.4L266,93.4z"/>
<path class="st28" d="M266,93.4c-0.2,0,0.8,0.5-2.3,0.8c0.5-4.3-8.6-9.7-2.8-11.5C266,81,267.5,90.2,266,93.4z"/>
<path class="st14" d="M634.9,328.1c-24.1,3.2-79.3,3.8-107.4,4.6c-0.9-2.1-1.2-5.2-1.5-7.7c43.1-7.4,79.4-31.4,116.6-52.9
	c0.5,0,1.5,1.8,1.5,1.8c0.2,17.5-1.7,35.3-0.8,52.9C640.5,328.2,637.6,327.6,634.9,328.1z"/>
<path class="st14" d="M642.5-10.9c0.3,30.7,0.3,30.7,0.8,61.3c-6.4,0.3-13,1.4-19.6,0.8c5.8-22.2-21.5-25-30.4-15
	c-0.6,0.8-0.3,7.1-4.9,4.3c-1.5-0.9-9.4-28.7-24.5-5.4c-7.1-3.2-20.1-4.6-24.5,3.1c-14-3.1-16,5.8-16.9,6.1
	c-1.2,0.5-24.2-1.5-17.2,13.5c4,8.3,47.4,2.1,50.3,4.3c0.6,0.5,0.6,8.7,0,9.2c-1.1,0.8-13.2-1.2-17.6,0.8
	c-7.1,3.1-11.8,24.7,20.7,18.4c6,14.6,18.1,7.7,33,9.2c13.3-15.8,17.8,0.9,22.2-16.9c14.7,1.5,13.8-4.1,15.3-4.6
	c0.9-0.3,10.3,0,13.5,0h0.8c0,57.5-0.2,115,0,172.5c-33.3,19.2-82.1,54.8-121.2,54.4c-10.3,0-17.5-1.8-25.8-8.4
	c-14.4-11.5-37-63.5-54-88.6c-10.9-16-87.3-108.4-102-124.2C303.1,44,287.9,44,253.1,14.6C241,2,241,2,228.9-10.7
	C435.6-10.9,435.6-10.9,642.5-10.9z"/>
<path class="st15" d="M534,144c11.7-0.8,15,11.2,16.1,11.5c1.5,0.5,10.6-3.2,13-2.3c0.3,0.2,2.5,4.1,3.8,4.6
	c5.4,1.5,12.4-6.1,23,3.8c35.7-9.4,36.7,30.1,5.4,23c-5.1,31-43.7,10.6-63.6,21.5c-9.2-3.1-31.3-5.4-39.9-3.8
	c-0.9,0.2-7.8,5.1-12.3,4.6c-0.5,0-9.4-3.8-9.5-4.3c-0.9-1.4,0-10.3-1.8-11c-22.5,1.7-21.9-28.2,14.6-19.2
	c14.9-18.4,15.8-6.4,36.8-7.7C520.9,164,518.6,145.1,534,144L534,144z"/>
<path class="st15" d="M448.8,90.3c8-2,9.4,3.7,10,3.8c3.1,0.9,16-3.2,20.7,10c18.6-5.7,23.3,4.3,24.5,4.6c4.1,1.2,18.6-2.9,16.6,5.8
	c-1.4,5.7-13.8,2.6-18.1,3.4c-1.4,0.3-7.4,8.4-27.6,3.8c-4.9,9.7-56.6,5.5-57.1-0.3c-0.5-5.8,9-4.6,9.5-4.9
	c1.5-1.1-2.5-12.1,13-12.3C440.7,99.7,444.4,91.4,448.8,90.3z"/>
<path class="st15" d="M430.4,7.5c4.3-0.2,10.3,3.2,11.5,7.7c19.3-3.7,18.4,10.4,11.5,12.3c-2.8,0.8-39,0.3-40.6-0.8
	c-4.4-2.6-2.1-10.7,7.7-9.2C420.5,12.3,425.4,7.7,430.4,7.5z"/>
<path class="st15" d="M509.4,249.1c11-2.8,13.8,5.7,14.6,6.1c2.6,1.4,10.6-1.2,8.9,5.8c-1.1,4-32.4,6.9-34,6.4
	c-0.9-0.2-4-4.1-3.4-5.8C503.1,257.5,506.6,249.7,509.4,249.1L509.4,249.1z"/>
<path class="st16" d="M395.9,16.7c6-2.5,8.4,7.1,3.8,8.4C393.9,26.9,392.4,18.1,395.9,16.7z"/>
<path class="st16" d="M570,209.2c5.4-1.2,6.6,7.2,2.3,8.4C566,219.3,566,210,570,209.2z"/>
<path class="st16" d="M342.2,10.6c5.8-1.8,6.9,7.5,2.3,8.4C339.2,19.9,338.4,11.8,342.2,10.6z"/>
<path class="st16" d="M609.1,223c6.4-1.8,6,7.5,2.3,8.4C606.2,232.7,604.7,224.2,609.1,223z"/>
<path class="st16" d="M491,16c5.1-1.1,6.9,7.2,3.1,8.4C488.4,26.2,486.4,16.9,491,16z"/>
<path class="st16" d="M404.4,64.3c4.4-0.9,6.6,8.4,1.5,9.2C401,74.1,400.8,64.9,404.4,64.3z"/>
<path class="st15" d="M643.3,50.5h0.8c-0.8,9.2,0.9,18.7-1.5,27.6c-3.1,0-12.4-0.3-13.5,0c-1.5,0.5-0.6,6.1-15.3,4.6
	c-4.4,17.8-8.9,1.1-22.2,16.9c-14.9-1.5-27,5.4-33-9.2C526,96.6,530.7,75,537.8,71.9c4.4-2,16.6,0,17.6-0.8c0.6-0.5,0.6-8.7,0-9.2
	c-2.8-2-46.3,4.1-50.3-4.3c-7.1-14.9,16-13,17.2-13.5c0.9-0.3,2.9-9.2,16.9-6.1c4.4-7.7,17.5-6.3,24.5-3.1
	c15.2-23.3,23,4.4,24.5,5.4c4.6,2.8,4.3-3.5,4.9-4.3c8.9-10,36.2-7.4,30.4,15C630.3,51.7,636.7,50.8,643.3,50.5L643.3,50.5z"/>
<path class="st14" d="M583,63.5c4,7.5,4,7.5,8,15c-12.4-2.9-19,1.1-20.2,0.3c-0.8-0.5-2.3-7.8-1.8-8.9
	C569.4,68.4,580.9,64.9,583,63.5z"/>
<path class="st3" d="M231.5,230.7c-1.8,2.5-8.1,15.8-10,19.9c-3.5,8-6.1,16.4-9.2,24.5c-0.3,0-0.3,0-0.8,0c-6.1-3.7-16.1-6-23-3.8
	c-0.8,0-0.8,0-1.5,0c-2.8-4-2.8-4-5.4-8c-21.5-44.2-21.5-44.2-42.9-88.2c-23.5-36-60.7-108-87.4-136.5C39.9,26.4,25.2,15.8,11,7.5
	c0-0.8,0-0.8,0-1.5c51.8,16.1,105.7,45.7,142.3,86.2C189.2,132.1,204.4,185,231.5,230.7z"/>
<path class="st19" d="M114.2,98c0,0,0.2,1.1-1.2,0.8c-0.2-2.6-1.4-2.5-1.8-3.1c-0.6-2.6-9.8-20.6-6.4-20.7c1.5,2,10.9,10.4,11,11
	C116,87.9,113.1,91.7,114.2,98z"/>
<path class="st18" d="M114.2,98c-0.9-6.3,2-10.1,1.5-12c-0.2-0.8-9.7-9.2-11-11c-3.4,0.2,6,18.1,6.4,20.7c-4.3-5.1-14-27.1-6.4-23
	c0.9,0.5,13.2,13.3,12.3,15.3c5.8,3.5,16.9,10.7,9.2,10c-0.9-0.2-8.1-8.1-10.7-6.1C114.2,92.6,115.9,96,114.2,98z"/>
<path class="st15" d="M165.1,174.7c0.6,0.2,6.7,8.4,7.4,9.5c11,20.7-5.4,0-6.4-0.3c-1.7-0.5-6.3,0.9-6.4,0.3
	C162.2,179.5,162.2,179.5,165.1,174.7L165.1,174.7z"/>
<path class="st17" d="M138.2,118c22.2,10.1,8,16.1,3.4,13.5C141.2,131,141,124.9,138.2,118z"/>
<path class="st26" d="M204.2,217.6c19.5-2.5,19.5,27.1,0.8,24.5C191.9,240.2,191.6,219.2,204.2,217.6z"/>
<path class="st29" d="M203.4,220.7c14-3.4,16,16.7,5.4,18.4C196.5,241.1,193.9,222.9,203.4,220.7z"/>
<path class="st30" d="M204.2,225.3c6.4-2.1,8.6,7.7,4.6,9.2C202.8,236.8,199.6,226.7,204.2,225.3z"/>
<path class="st15" d="M246.1,440.8c-3.1,8.3-3.1,8.3-6.1,16.6c-0.8,0-0.8,0-1.5,0c0.5-2.9-1.4-4-1.5-4.3c0.3-2.6-1.4-3.7-1.5-3.8
	c-0.8-2.5-1.2-5.2-1.8-7.7C237.5,440.2,241.8,441,246.1,440.8z"/>
<path class="st31" d="M269.1,434.7c-0.3,2-0.6,4.1-0.8,6.1c-7.4,0.2-14.9-0.3-22.2,0c-4.3,0.2-8.4-0.5-12.6,0.8
	c0.8,2.5,1.2,5.2,1.8,7.7c-1.7-2.9-4-5.2-4.3-8.4c-12.4-0.3-12.4-0.3-24.8-0.8c0-2.3,0-2.3,0-4.6c4.9,0.3,27,0.8,29.1-1.5
	C244.7,436.5,258.5,434.1,269.1,434.7z"/>
<path class="st32" d="M273.7,399.4c-1.2,11.8-3.2,23.5-4.6,35.3c-10.6-0.6-24.2,1.8-33.7-0.8c3.4-11.3,1.4-23.6,3.1-35.3
	C250.1,398.6,261.9,399.2,273.7,399.4z"/>
<path class="st3" d="M235.3,449.2c0.6,2.1,0.6,2,1.5,3.8c0.2,0.2,2,1.2,1.5,4.3h1.5c3.1-8.3,3.1-8.3,6.1-16.6
	c7.4-0.3,14.9,0.2,22.2,0v0.8c-7.5,74.7-4.8,94.9,39.9,155.2c2.1,2.9,5.2,4.3,5.4,4.6s0.2,2.9,3.1,6.4c-9.7,3.5-43.1,17.2-50.3,16.9
	c-17.5-5.1-36.5-8.1-48.8-23c-3.2-54.1-12.7-107.4-11.5-161.8c12.4,0.3,12.4,0.3,24.8,0.8C231.3,444,233.6,446.3,235.3,449.2
	L235.3,449.2z"/>
<path class="st33" d="M240.2,521.3c7.7-1.2,10,12,2.3,13C234.6,535.4,233.3,522.4,240.2,521.3z"/>
<path class="st33" d="M236.4,477.6c8.3-2,9.8,10.4,3.1,11.5C231.5,490.3,230.4,479,236.4,477.6z"/>
<path class="st17" d="M263.2,585.7c12.9,4.4,6.7,3.4,8.4,14.6C267.4,599.7,261.3,587.1,263.2,585.7z"/>
<path class="st31" d="M236.9,453.1c-0.9-1.8-0.9-1.7-1.5-3.8C235.3,449.4,237.2,450.5,236.9,453.1z"/>
<path class="st2" d="M258.6,535.9c24.2-1.4,13.8,38-7.7,23C240.2,551.4,246.7,536.5,258.6,535.9z"/>
<path class="st34" d="M256.3,539c21.3-4,19,24.1,0,19.9C246.7,556.8,244.7,541.1,256.3,539z"/>
<path class="st28" d="M256.3,544.3c7.1-2.3,10.6,5.7,6.1,8.4C255,557.5,250.2,546.3,256.3,544.3z"/>
<path class="st35" d="M438.6,631.8c-36.8,0-73.6,2.1-110.4,0h8.4c33,0,66,0.6,98.9-0.8C436.4,631.4,437.2,631.9,438.6,631.8z"/>
<path class="st4" d="M397.1,604.1c8.7,8.1,28.1,21.5,38.3,26.8c-33,1.4-66,0.8-98.9,0.8C331,623,322.9,616,316.6,608
	c-2.9-3.7-2.9-6.3-3.1-6.4c-0.2-0.3-3.2-1.7-5.4-4.6c-44.6-60.3-47.4-80.5-39.9-155.2c20.2,0.6,40.3-0.5,60.6-0.8
	c2.3,26.8,3.7,73,13.8,96.9C351.4,558.6,378.7,589.6,397.1,604.1z"/>
<path class="st6" d="M333,545.9c9.4,0,9.8,3.4,3.1,4.6c-2.8,0.5-35.7,3.8-37.6,3.8c-2.1,0-10.6-1.2-6.1-3.8
	C294.1,549.4,331,545.9,333,545.9z"/>
<path class="st6" d="M323.1,529.8c15.3,6.3-30.4,5.8-36.8,8.4C272.8,531.9,309.3,533.1,323.1,529.8z"/>
<path class="st6" d="M320.8,506.8c3.1,0.6,3.1,3.5-1.5,4.6c-1.8,0.5-35.7,4-37.6,3.8c-5.2-0.5-3.7-3.7,0.8-4.6
	C284.3,510.1,318.9,506.3,320.8,506.8z"/>
<linearGradient id="SVGID_1_" gradientUnits="userSpaceOnUse" x1="299.2677" y1="214.9547" x2="298.8156" y2="198.8569" gradientTransform="matrix(1 0 0 -1 0 632)">
	<stop  offset="0" style="stop-color:#73411B"/>
	<stop  offset="1" style="stop-color:#9E5C25"/>
</linearGradient>
<path class="st36" d="M325.8,400.9c-0.8,3.1,0,22.2,1.5,25.3c0.2,2.6-0.2,5.2,0,7.7c0.3,4.3,1.5,6.6,1.5,6.9
	c-20.2,0.3-40.3,1.4-60.6,0.8c0-0.3,0-0.5,0-0.8c0.2-2,0.5-4.1,0.8-6.1c1.4-11.8,3.4-23.5,4.6-35.3c11.3,0.2,42.2-1.2,47.2-0.8
	C322,398.6,324.4,400.5,325.8,400.9z"/>
<path class="st37" d="M281.7,410.1l30.4,1.2c-21.8,14.1-13.7,14.9-15.3,19.2c-2.8,7.5-2.9-8.6-3.1-9.2
	C293,419.6,282.6,413,281.7,410.1z"/>
<linearGradient id="SVGID_00000067933309411201736790000009342884989469042578_" gradientUnits="userSpaceOnUse" x1="297.7082" y1="358.9615" x2="370.2382" y2="253.4143" gradientTransform="matrix(1 0 0 -1 0 632)">
	<stop  offset="0" style="stop-color:#F9A55A"/>
	<stop  offset="1" style="stop-color:#F48552"/>
</linearGradient>
<path style="fill:url(#SVGID_00000067933309411201736790000009342884989469042578_);" d="M213.9,295.1c2,2.5,32.2,2.1,37.6,2.3
	c43.3,0.9,87.1,0.6,130.4,0c8.3-0.2,43.3,0.3,47.9-1.5c4.9-2,2.8-6,3.4-7.7c6.4-16,4.3,0.9,9.2,3.8c0,0-0.6,0.5,1.5,0.8
	c0.5,3.4,1.8,6.6,2.3,10c0.5,2.5-0.2,10.6,2.3,13c-0.3,1.2-0.3,1.2-0.8,2.3c-16,0.9-10.4-5.2-19.6-11.5c-21.5-14.9-49.7,9.7-33.4,31
	c11.5,15,36.8,8.4,52.9,8c0,4,0.2,7.5,0,11.5c-1.4-2.9-18.1,2-25.8,3.1c-16.1,2.3-32.5,3.7-48.8,4.6c3.1-4.9,2.1-12.3,0.8-17.6
	c-0.6-2.3-5.4-14-7.4-14.6c-47.2-0.3-47.2-0.3-94.3-0.8c-2.1,0.6-7.4,10.7-8,13c-8-3.4-8-3.4-16.1-6.9
	c14.9-19.9-10.3-52.9-39.9-24.5c-0.9,0.9-2.5,4.4-2.8,4.6c-0.5,0.3-6.6,0-9.5,1.5c-3.2-3.2,4.4-18.1,6.9-26.8
	c6.3-0.9,4.9-6.3,9.2-17.6c3.1-8.1,5.7-16.6,9.2-24.5c0.9,2.1,2.3,2.6,2.3,3.4C223.7,256.1,210.3,285.7,213.9,295.1L213.9,295.1z"/>
<path class="st27" d="M262.9,363.3v0.8c0.3,1.5,0.6,2.9,1.8,3.8h105.8c0.5-0.2,2.3-2.5,2.8-3.1c16.3-0.9,32.7-2.3,48.8-4.6
	c7.5-1.1,24.4-6,25.8-3.1c-0.2,6.6,0.5,13.3,0,19.9c-84,10-169.9,12.4-253.8-0.8c-0.2-6.9,0.2-13.8,0-20.7
	C216.6,359.1,239.6,364,262.9,363.3L262.9,363.3z"/>
<path class="st39" d="M447.8,377.2c-0.3,3.8-1.4,7.8-0.8,12c-1.5,4.4-1.5,4.4-3.1,8.9c-14.1-0.6-28.2,0.6-42.2,0.8
	c-24.8,0.3-49.8-0.3-74.8,0c-1.5,1.1-1.1,1.8-1.2,2.3c-1.2-0.3-3.7-2.1-4.9-2.3c-5.1-0.5-35.9,0.9-47.2,0.8
	c-11.8-0.2-23.5-0.8-35.3-0.8c-14.1,0-28.1-0.2-42.2,0c-0.2-2.6,0.2-5.1,0-7.7c-0.2-2.5-2.3-3.8-2.3-4.6c0-4.9,0-4.9,0-10
	C277.7,389.6,363.7,387,447.8,377.2L447.8,377.2z"/>
<path class="st40" d="M287.5,197.7c9.4-0.5,75.5-0.6,79.4,0c11.7,1.7,20.9,12.1,28.8,19.9c-14.6-4.8-46.8-5.8-62.9-6.1
	c-10.3-0.2-20.4,0.5-30.7,0.8c-14,0.5-29.1,0.3-42.9,3.1c-4.4,0.9-12.3,3.2-16.1,5.4C258.6,200,264.3,198.6,287.5,197.7L287.5,197.7
	z"/>
<path class="st1" d="M238.4,398.6c-1.7,11.7,0.3,23.9-3.1,35.3c-2.1,2.3-24.2,1.8-29.1,1.5c-4.3-0.3-8.6,0.9-10-1.2
	c0.8-6.3-0.6-12.6-0.8-18.7c0-0.2,0.9,0,0.8-3.8c-0.2-4.3,0.2-8.7,0-13C210.2,398.3,224.3,398.5,238.4,398.6z"/>
<path class="st41" d="M264.5,344.9c-1.5,5.1-2.5,13-1.5,18.4c-23.2,0.6-46.2-4.1-69-7.7c0-3.2,0-6,0-9.2c16.3-3.1,34.5,6,49.1-3.8
	c0.9-0.6,4.9-4.1,5.4-4.6C256.3,341.4,256.3,341.4,264.5,344.9z"/>
<path class="st27" d="M211.6,313.5c-17.5,19.8,14.1,38.2,30.7,24.5c0.3,2.3,0.3,2.3,0.8,4.6c-14.6,9.8-32.8,0.8-49.1,3.8
	c0-5.2-1.1-10.7-0.8-16.1c0.2-2.5-0.8-4.3-0.8-4.6c0-0.5,1.7-5.1,3.8-6.1c2.9-1.5,9-1.2,9.5-1.5c0.3-0.2,1.7-3.7,2.8-4.6
	C209,314.1,211.4,313.5,211.6,313.5z"/>
<path class="st19" d="M255.3,223.8c-31,6.9-34.5,45.4-41.4,71.3c-3.4-9.4,9.8-38.8,10-41.1c0-0.9-1.4-1.4-2.3-3.4
	c1.8-4.1,8.1-17.5,10-19.9c0.9-1.1,10.3-9.2,11.5-10c3.8-2.1,11.7-4.4,16.1-5.4C258.8,219.5,244.4,218.6,255.3,223.8z"/>
<path class="st19" d="M427,249.9c3.8,8,6.3,16.3,9.2,24.5c0.5,1.4,1.8,3.4,2.3,4.6c1.4,4.1,1.8,8.9,3.8,13
	c-4.9-2.9-2.8-19.8-9.2-3.8c-1.7-13.8-10.7-42.8-19.2-52.9C421.7,233.3,421.4,246.3,427,249.9z"/>
<path class="st42" d="M374.1,347.2c-0.5,6.7,1.5,13.5-3.4,19.2c-23.5-0.3-47.1-1.2-70.6-0.8c-0.6,0-0.2,1.5-0.8,1.5
	c-12,0.3-33.4,1.5-36.5-3.1c0-0.3,0-0.5,0-0.8c-0.9-5.4,0-13.3,1.5-18.4c0.6-2.3,6-12.4,8-13c47.2,0.3,47.2,0.3,94.3,0.8
	C368.8,333.3,373.5,344.8,374.1,347.2L374.1,347.2z"/>
<path class="st39" d="M373.4,364.9c-0.3,0.6-2.3,2.9-2.8,3.1c-52.9,0-52.9,0-105.8,0c-1.2-0.9-1.5-2.3-1.8-3.8
	c3.1,4.6,24.5,3.4,36.5,3.1c0.6,0,0.2-1.5,0.8-1.5c23.5-0.5,47.1,0.5,70.6,0.8c4.9-5.7,2.9-12.4,3.4-19.2
	C375.4,352.5,376.3,359.8,373.4,364.9L373.4,364.9z"/>
<path class="st1" d="M443.9,397.9c0.2,5.7-0.2,11.2,0,16.9c0.3,10.7-2.6,18.7,5.4,18.4c-0.5,1.8,1.5,2.6-0.3,3.8
	c-20.6,0-20.6,0-41.1,0c-1.8-3.4-1.8-3.4-3.8-6.9c-1.2-15.6-1.2-15.6-2.3-31.4C415.7,398.3,429.8,397.1,443.9,397.9z"/>
<path class="st43" d="M332.7,211.5c0.2,4,1.8,4.8-1.2,8.4c-17.6-3.7-35,5.4-29.4-7.7C312.3,211.8,322.3,211.2,332.7,211.5z"/>
<path class="st44" d="M248.4,338c-0.5,0.5-4.4,4-5.4,4.6c-0.3-2.3-0.3-2.3-0.8-4.6c8.1-6.7,8.7-20.7,0.3-27.6
	c-14.3-11.7-27.5,1.4-31,3.1c-0.2,0-2.6,0.6-3.1,0C237.9,285.1,263.1,318.1,248.4,338z"/>
<path class="st26" d="M242.2,338c-16.6,13.7-48.2-4.8-30.7-24.5c3.7-1.7,16.9-14.7,31-3.1C251,317.2,250.4,331.3,242.2,338z"/>
<path class="st27" d="M447.8,318.1c-0.2,1.2,0.8,1.5,0.8,3.1c-1.8,0-0.9,15-0.8,24.5c-16.1,0.5-41.4,7.1-52.9-8
	c-16.3-21.5,12-45.9,33.4-31C437.2,312.9,431.7,319,447.8,318.1z"/>
<path class="st0" d="M411.3,305.1c7.1-0.5,18.6,5.5,21.8,12c8.7,16.7-13.5,33.6-31,22.7C385,328.8,395.3,306.1,411.3,305.1z"/>
<path class="st13" d="M395.6,217.6c17.5,5.7,24.1,16.7,31.4,32.2c-5.5-3.5-5.4-16.6-13-14.6c-3.2-3.8-8-7.5-12.6-9.2
	c-12-4.4-66-7.1-69-5.4c-0.9,0.5-1.4,6.3-1.2,7.7c-0.2,0-0.6,1.5-1.2,1.5c-8.1,0-16.4-0.2-24.5,0c-0.3,0-1.1-1.5-1.8-1.5
	c-0.3-1.5,0.6-7.1-0.3-7.7c-2.1-1.5-42.5,1.8-47.9,3.1c-10.7-5.2,3.7-4.3,3.8-8.4c13.8-2.8,29-2.6,42.9-3.1c-5.5,13,11.8,4,29.4,7.7
	c3.1-3.7,1.4-4.4,1.2-8.4C348.8,211.7,380.9,212.9,395.6,217.6z"/>
<path class="st29" d="M307,219.9c4.6,0.5,20.7-0.6,22.2,0c1.7,0.8,1.4,7.7,1.2,8C329.7,229.3,298.2,233.3,307,219.9z"/>
<path class="st45" d="M414,235.3c8.4,10.1,17.5,39.1,19.2,52.9c-0.6,1.7,1.4,5.7-3.4,7.7c-4.6,1.8-39.6,1.4-47.9,1.5
	c0.9-3.1,11.2-3.5,10.7-6.9c10.6-0.5,21.3,0.6,31.9-1.5c2.1-2.6-2-10.3-2.8-13c-1.5-5.5-2.5-8.4-4.6-13.8c-1.8-4.8-3.5-9.2-6.1-13.8
	c-10.7-18.7-21.9-17.5-42.6-19.2c-9.4-0.8-26.8-0.6-37.3-0.8c-0.2-1.4,0.2-7.2,1.2-7.7c3.1-1.7,57.1,0.9,69,5.4
	C406,227.8,410.8,231.4,414,235.3z"/>
<path class="st45" d="M303.6,228.4c-12.9,0.3-41.6,0.2-52.5,4.6c-10.4,4.1-12.4,14.9-16.6,23.8c-1.8,4-3.8,8.1-5.4,12.3
	c-1.1,3.1-2.1,6-3.1,9.2c-0.5,1.8-4.4,11-2.8,12.3c7.2,0.2,14.6-0.2,21.8,0c-0.8,4.1,5.4,4.4,6.1,6.9c-5.4-0.2-35.6,0.2-37.6-2.3
	c6.9-25.9,10.4-64.4,41.4-71.3c5.5-1.2,45.7-4.6,47.9-3.1C304,221.3,303.3,226.8,303.6,228.4L303.6,228.4z"/>
<path class="st46" d="M253.7,290.5c40.3,1.1,80.8,1.5,121.2,0.8c5.8-0.2,11.8-0.6,17.6-0.8c0.5,3.4-9.8,3.8-10.7,6.9
	c-43.3,0.6-87.1,0.9-130.4,0c-0.8-2.5-6.9-2.8-6.1-6.9C248.1,290.5,250.8,290.3,253.7,290.5z"/>
<path class="st47" d="M331.2,228.4c10.4,0.2,27.9,0,37.3,0.8c20.6,1.7,31.7,0.5,42.6,19.2c2.1,29.9-28.8,11.3-52.5,8.4
	c-15.5-1.8-82.5-4-93.6,3.1c-2.3,1.5-2.5,4.3-2.8,4.6c0,0-0.3-0.3-0.8,0.8c-13.5-4.3-13.5-4.3-26.8-8.4c4-8.9,6.1-19.6,16.6-23.8
	c11-4.4,39.7-4.3,52.5-4.6c0.9,0,1.5,1.5,1.8,1.5c8.1-0.2,16.4,0,24.5,0C330.6,229.9,331,228.4,331.2,228.4L331.2,228.4z"/>
<path class="st48" d="M417.1,262.1c2.1,5.4,3.1,8.3,4.6,13.8c-7.8,3.1-16.4,4-24.5,6.1c-0.6-0.3-1.8-2.3-1.8-2.3
	c-5.2-1.7-56.3-0.6-67.9-0.8c0.2-1.5,0.5-7.8-1.2-8.4c-22.7,9-26.1,8.1,1.2,8.4c-0.2,1.2,0.3,2.5-0.3,3.1c-1.2-0.8-1.1-2.1-1.5-2.3
	c-3.1-0.6-52.8,0-61.3,0c-0.9,0-5.4,2.3-5.8,2.3c-10.7,0-21.8-0.8-32.2-3.8c0.9-3.2,2-6.1,3.1-9.2c10.4-0.5,20.4,1.5,30.4,4.6
	c1.2-1.4,1.7-8,1.8-8.4c0.5-1.1,0.8-0.8,0.8-0.8l17.2-4.6c22.1-4.1,111.5,11,119.6,10C401.1,269.5,414,264.3,417.1,262.1
	L417.1,262.1z"/>
<path class="st48" d="M417.1,262.1c-3.1,2.1-16,7.4-18.1,7.7c-8.1,1.1-97.5-14.1-119.6-10c-8.6,2.3-8.6,2.3-17.2,4.6
	c0.2-0.3,0.3-3.1,2.8-4.6c11-7.1,78.1-4.9,93.6-3.1c23.8,2.9,54.8,21.5,52.5-8.4C413.6,252.8,415.1,257.2,417.1,262.1L417.1,262.1z"
	/>
<path class="st49" d="M392.5,290.5c-5.8,0.2-11.8,0.6-17.6,0.8c-1.4-4.6,14.1-7.1,22.2-9.2c8.1-2.1,16.7-3.1,24.5-6.1
	c0.8,2.8,4.9,10.4,2.8,13C413.7,291,403.1,290,392.5,290.5z"/>
<path class="st21" d="M258.3,282.1c-2.3,4.3-2.3,4.3-4.6,8.4c-2.8,0-5.7,0.2-8.4,0c-7.2-0.2-14.6,0.2-21.8,0
	c-1.8-1.2,2.1-10.4,2.8-12.3C236.4,281.1,247.5,281.9,258.3,282.1z"/>
<path class="st48" d="M261.4,265.2c-0.2,0.5-0.6,7.1-1.8,8.4c-9.8-3.1-19.9-5.1-30.4-4.6c1.5-4.1,3.5-8.3,5.4-12.3
	C247.9,260.9,247.9,260.9,261.4,265.2z"/>
<path class="st48" d="M397.1,282.1c-8.1,2.1-23.6,4.6-22.2,9.2c-40.3,0.8-80.8,0.3-121.2-0.8c2.3-4.3,2.3-4.3,4.6-8.4
	c0.3,0,4.9-2.3,5.8-2.3c8.6,0,58.3-0.6,61.3,0c0.5,0.2,0.3,1.5,1.5,2.3c0.8-0.6,0.3-1.8,0.3-3.1c11.7,0.2,62.6-0.9,67.9,0.8
	C395.3,279.8,396.4,281.8,397.1,282.1z"/>
<path class="st50" d="M327.4,279c-27.3-0.3-23.9,0.6-1.2-8.4C327.8,271.2,327.5,277.3,327.4,279z"/>
<path class="st20" d="M401.7,398.6c1.2,15.6,1.2,15.6,2.3,31.4c-5.7,1.5-40.6-1.7-42.6-0.8c-2.6,1.2,1.1,1.1,1.2,5.4
	c-4.9-1.5-1.2-12.6-6.6-10c-2,0.9-0.9,10-1.2,12.3c0,0-0.3,0.3-0.8-0.8c-3.4-7.5,8.7-6.3-25.8-6.9c-0.3-0.2-0.3-1.4-1.2-3.1
	c-1.5-3.1-2.3-22.2-1.5-25.3c0.2-0.5-0.3-1.2,1.2-2.3C351.9,398.3,376.7,398.9,401.7,398.6z"/>
<path class="st51" d="M404,430.1c1.8,3.4,1.8,3.4,3.8,6.9v3.8c-15.2-1.2-31.7,2-46.8-0.8c1.7-2,1.5-2.9,1.5-5.4
	c-0.2-4.3-3.8-4.1-1.2-5.4C363.4,428.4,398.2,431.4,404,430.1z"/>
<path class="st31" d="M354.2,436.2c0.5,1.1,0.8,0.8,0.8,0.8c1.2,2.1,2.3,2.5,4.6,3.1c-9.4,1.7-20.6,0.6-30.7,0.8
	c0-0.3-1.2-2.6-1.5-6.9C340.7,435,340.7,435,354.2,436.2z"/>
<path class="st32" d="M354.2,436.2c-13.5-1.2-13.5-1.2-26.8-2.3c-0.2-2.5,0.2-5.1,0-7.7c0.9,1.7,0.8,2.9,1.2,3.1
	C362.9,429.8,350.8,428.5,354.2,436.2z"/>
<path class="st52" d="M362.6,434.7c0,2.5,0.2,3.4-1.5,5.4c-0.5-0.2-1.1,0.2-1.5,0c-2.3-0.6-3.4-0.9-4.6-3.1
	c0.3-2.3-0.8-11.3,1.2-12.3C361.3,421.9,357.6,433.1,362.6,434.7z"/>
<path class="st3" d="M361.1,440c15,2.8,31.6-0.5,46.8,0.8c16.6,60.9,25,135.4,75.9,177.9c-10.1-3.2-67.9-8.6-86.7-14.6
	c-18.4-14.6-45.7-45.4-54.4-66.3c-10.1-23.9-11.5-70.1-13.8-96.9c10.1-0.2,21.3,0.9,30.7-0.8C359.9,440,360.5,439.9,361.1,440
	L361.1,440z"/>
<path class="st15" d="M415.1,565c33.3,30.5,0.3,11.5-0.3,9.5C414.5,573.6,414.6,565.3,415.1,565z"/>
<path class="st33" d="M407.4,544.3c7.1-0.5,8.4,11.2,1.5,12.3C400.7,557.8,400.5,544.8,407.4,544.3z"/>
<path class="st33" d="M381.3,502.2c7.7-0.6,8.6,12,0.8,12.3C375.2,514.7,374.3,502.6,381.3,502.2z"/>
<path class="st26" d="M369.1,466.1c22.4-0.9,14.4,35.3-6.1,23C352.5,482.8,357.1,466.6,369.1,466.1z"/>
<path class="st27" d="M367.5,468.4c16.6-2.3,16.7,23.9-0.8,19.2C356.7,484.8,357.9,469.6,367.5,468.4z"/>
<path class="st53" d="M367.5,470.7c6.7-2.3,9,4.9,3.8,7.7C364.5,481.9,362.5,472.2,367.5,470.7z"/>
<text transform="matrix(1 0 0 1 712.4144 297.9796)"><tspan x="0" y="0" class="st54 st55">Which Route </tspan><tspan x="65.1" y="84" class="st54 st55">Is Faster?</tspan></text>
</svg>
